<?xml version="1.0" standalone="no"?>
<!DOCTYPE svg PUBLIC "-//W3C//DTD SVG 1.1//EN" "http://www.w3.org/Graphics/SVG/1.1/DTD/svg11.dtd" >
<svg xmlns="http://www.w3.org/2000/svg">
<metadata></metadata>
<defs>
<font id="Sina-RegularRegular" horiz-adv-x="1091" >
<font-face units-per-em="2048" ascent="1583" descent="-465" />
<missing-glyph horiz-adv-x="442" />
<glyph unicode="&#xfb01;" horiz-adv-x="1128" d="M45 709v65q17 5 55 14t58 15q27 6 38 25t11 69q3 201 39 311t121 174q73 56 142 77.5t150 21.5q143 0 209 -41q35 -23 35 -58q0 -43 -57 -125q-121 99 -266 99q-111 0 -172 -76q-58 -73 -58 -281v-194h201q121 0 186 14q16 3 65.5 16t67.5 13q52 0 52 -72 q0 -47 -0.5 -185.5t-1 -260t-0.5 -125.5q0 -76 14 -96q17 -22 147 -31v-80q-172 4 -227 4q-51 0 -219 -4v80q66 6 91.5 11.5t37.5 16.5q18 15 18 97q0 296 -6 370q-5 55 -22 80q-27 47 -195 47h-207q0 -3 -0.5 -97t-1 -205t-0.5 -156q0 -70 5 -94t20 -39q22 -19 168 -31v-80 q-184 4 -248 4q-49 0 -229 -4v80q9 1 26 3q86 9 103.5 26t17.5 98q-4 286 -4 493q-107 0 -164 11z" />
<glyph unicode="&#xfb02;" horiz-adv-x="1124" d="M45 709v65q39 12 113 29q28 6 38.5 25t10.5 69q3 199 40 309.5t120 177.5q118 95 270 95q58 0 137 -27q75 35 105 35q43 0 43 -57q0 -232 -1 -622.5t-1 -600.5q0 -82 16 -98q10 -12 37 -18.5t104 -12.5v-80q-172 4 -235 4q-39 0 -207 -4v80q110 10 129 26q18 15 18 101 q0 102 -3 499t-3 426q0 138 -26 168q-54 64 -168 64q-108 0 -174 -82q-58 -69 -58 -283v-188q130 0 260 -10v-90q-117 -13 -258 -13q0 -2 -0.5 -95t-1 -203.5t-0.5 -155.5q0 -70 5 -94t20 -39q19 -19 168 -31v-80q-184 4 -248 4q-45 0 -229 -4v80q115 11 133 35q14 20 14 92 q-4 286 -4 491q-97 0 -164 13z" />
<glyph unicode="&#xfb03;" horiz-adv-x="1716" d="M45 709v65q39 12 113 29q28 6 38.5 25t10.5 69q3 195 37.5 289t120.5 162q121 92 270 92q89 0 151 -29q35 -14 35 -47q0 -34 -51 -111q-87 62 -203 62q-101 0 -159 -72q-58 -69 -58 -287v-157h260q103 0 138 12q24 8 35 27t12 63q5 201 40 309t119 172q73 56 142 77.5 t149 21.5q138 0 209 -41q35 -21 35 -58q0 -46 -55 -125q-124 99 -269 99q-112 0 -170 -76q-57 -67 -57 -281v-194h201q121 0 186 14q16 3 65.5 16t67.5 13q51 0 51 -72q0 -47 -0.5 -185.5t-1 -260t-0.5 -125.5q0 -73 13 -96q17 -22 149 -31v-80q-172 4 -229 4q-45 0 -213 -4 v80q63 6 88 11.5t37 16.5q16 16 16 97q0 321 -4 370q-5 53 -23 80q-30 47 -196 47h-205q0 -3 -1 -97t-2 -205t-1 -156q0 -69 5.5 -93t21.5 -40q22 -19 167 -31v-80q-184 4 -249 4q-50 0 -234 -4v80q13 2 35 4q32 3 45 5t30.5 7.5t22.5 12t11 20.5t7 31.5t1 46.5 q0 63 -0.5 182.5t-1 213.5t-0.5 95h-445q0 -2 -0.5 -95t-1 -203.5t-0.5 -155.5q0 -70 5 -94t20 -39q21 -18 172 -31v-80q-184 4 -252 4q-45 0 -229 -4v80q94 9 113 18q28 12 32 58q2 18 2 51q-4 286 -4 491q-97 0 -164 13z" />
<glyph unicode="&#xfb04;" horiz-adv-x="1710" d="M45 709v65q39 12 113 29q28 6 38.5 25t10.5 69q3 195 37.5 289t120.5 162q121 92 270 92q89 0 151 -29q35 -14 35 -47q0 -34 -51 -111q-87 62 -203 62q-101 0 -159 -72q-58 -69 -58 -287v-157h266q99 0 134 12q23 8 33.5 26t11.5 62q4 199 40.5 308.5t116.5 176.5 q118 95 271 95q61 0 137 -27q78 35 104 35q45 0 45 -57q0 -232 -1 -622.5t-1 -600.5q0 -80 15 -98q10 -12 37.5 -18.5t103.5 -12.5v-80q-168 4 -236 4q-30 0 -202 -4v80q69 6 93 11t34 15q16 16 16 101q0 102 -2 499t-2 426q-2 78 -7.5 114.5t-19.5 53.5q-48 64 -168 64 q-108 0 -174 -82q-57 -68 -57 -283v-188q128 0 258 -10v-90q-117 -13 -256 -13q0 -2 -1 -95t-2 -203.5t-1 -155.5q0 -69 5.5 -93t21.5 -40q19 -16 167 -31v-80q-184 4 -249 4q-50 0 -234 -4v80q13 2 35 4q32 3 45 5t30.5 7.5t22.5 12t11 20.5t7 31.5t1 46.5q0 63 -0.5 182.5 t-1 213.5t-0.5 95h-445q0 -2 -0.5 -95t-1 -203.5t-0.5 -155.5q0 -70 5 -94t20 -39q21 -18 172 -31v-80q-184 4 -252 4q-45 0 -229 -4v80q93 9 112 18q28 13 33 57q2 19 2 52q-4 286 -4 491q-97 0 -164 13z" />
<glyph horiz-adv-x="0" />
<glyph horiz-adv-x="2048" />
<glyph unicode=" "  horiz-adv-x="442" />
<glyph unicode="&#x09;" horiz-adv-x="442" />
<glyph unicode="&#xa0;" horiz-adv-x="442" />
<glyph unicode="!" horiz-adv-x="573" d="M207 90q0 46 30 77.5t74 31.5q49 0 81 -30t32 -75q0 -52 -30.5 -83t-80.5 -31q-46 0 -76 31.5t-30 78.5zM223 1270q0 100 94 100q97 0 97 -100q0 -26 -6.5 -121t-23.5 -327t-30 -414h-75q-56 855 -56 862z" />
<glyph unicode="&#x22;" horiz-adv-x="585" d="M70 1288q0 88 82 88q44 0 62.5 -22t18.5 -66q0 -48 -51 -444h-69q-43 420 -43 444zM352 1288q0 88 84 88q44 0 62 -22t18 -66q0 -63 -49 -444h-70q-45 413 -45 444z" />
<glyph unicode="#" horiz-adv-x="1140" d="M96 403v144h244l49 221h-205v145h234l86 383h92l-86 -383h233l86 383h91l-84 -383h211v-145h-242l-49 -221h198v-144h-229l-92 -428h-92l94 428h-236l-94 -428h-88l92 428h-213zM430 547h238l45 221h-234z" />
<glyph unicode="$" horiz-adv-x="1067" d="M92 154q0 54 66 120q19 -28 46 -56t68 -57t99.5 -48.5t124.5 -22.5v473l-70 37q-159 81 -220 162t-61 188q0 131 98 216t253 106v207h88v-201q189 0 288 -57q35 -17 35 -47q0 -51 -65 -132q-32 44 -104.5 82.5t-153.5 44.5v-464l32 -17q192 -103 256 -174.5t64 -181.5 q0 -127 -96 -220t-256 -116v-219h-88v211h-9q-243 0 -362 102q-13 10 -23 28t-10 36zM297 989q0 -79 41.5 -128.5t157.5 -108.5v415q-199 -19 -199 -178zM584 94q93 13 148.5 62.5t55.5 117.5q0 69 -39 122t-165 122v-424z" />
<glyph unicode="%" horiz-adv-x="1685" d="M55 868q0 195 92 310.5t236 115.5q139 0 222 -104t83 -279q0 -208 -87 -323t-230 -115q-149 0 -232.5 105.5t-83.5 289.5zM182 889q0 -342 195 -342q180 0 180 334q0 340 -182 340q-88 0 -140.5 -82.5t-52.5 -249.5zM506 -6l579 1300h101l-576 -1300h-104zM999 377 q0 195 91 310.5t235 115.5q141 0 223 -104t82 -279q0 -208 -86 -323t-229 -115q-150 0 -233 105.5t-83 289.5zM1126 397q0 -342 193 -342q182 0 182 334q0 340 -184 340q-88 0 -139.5 -82t-51.5 -250z" />
<glyph unicode="&#x26;" horiz-adv-x="1427" d="M96 346q0 71 20.5 128.5t63 103t98.5 81t136 70.5q-56 84 -81.5 149t-25.5 144q0 61 21.5 116t64 100.5t115.5 72t168 26.5q88 0 156.5 -33.5t105.5 -91.5t37 -131q0 -121 -85.5 -204.5t-271.5 -159.5q67 -99 165.5 -216t193.5 -210q81 88 117 201q12 32 12 73 q0 12 -6.5 22t-21 16.5t-27.5 10.5t-35.5 7t-35.5 4.5t-36 2.5q-6 1 -8 1v82q118 -4 225 -4q120 0 246 4v-82q-99 -5 -137 -39q-5 -4 -9.5 -10.5t-10.5 -18t-11 -21.5t-13.5 -28.5t-15.5 -32.5q-33 -69 -79.5 -144t-79.5 -108q89 -99 286 -254l-45 -73q-193 79 -354 213 q-175 -138 -391 -138q-201 0 -326 100.5t-125 270.5zM268 367q0 -37 9.5 -74.5t32.5 -74.5t56 -65t85 -45.5t116 -17.5q163 0 289 96q-105 98 -206.5 221t-182.5 240q-110 -53 -154.5 -120t-44.5 -160zM469 1044q0 -58 26.5 -124.5t69.5 -124.5q147 60 213 127.5t66 148.5 q0 79 -46 126.5t-130 47.5q-55 0 -95.5 -17t-62 -46.5t-31.5 -63.5t-10 -74z" />
<glyph unicode="'" horiz-adv-x="303" d="M70 1288q0 88 82 88q44 0 62.5 -22t18.5 -66q0 -48 -51 -444h-69q-43 420 -43 444z" />
<glyph unicode="(" horiz-adv-x="638" d="M96 563q0 266 118.5 511t354.5 433l49 -55q-128 -144 -203.5 -266t-119 -277.5t-43.5 -345.5q0 -238 98 -461t271 -419l-48 -58q-225 172 -351 418.5t-126 519.5z" />
<glyph unicode=")" horiz-adv-x="638" d="M18 -322q96 107 160.5 199.5t113 199t71 226.5t22.5 264q0 238 -97.5 462t-269.5 419l48 57q224 -173 349.5 -419.5t125.5 -518.5q0 -266 -118 -511t-353 -433z" />
<glyph unicode="*" horiz-adv-x="843" d="M86 1094q0 32 19 56t53 24q9 0 19 -3.5t30.5 -15t40 -23t65 -39t86.5 -51.5q-6 28 -22 89t-22.5 95t-6.5 58q0 36 22 54t50 18q30 0 51 -16.5t21 -55.5q0 -24 -6.5 -60t-18.5 -92.5t-18 -89.5q125 78 169 101.5t70 23.5q30 0 48 -20.5t18 -50.5q0 -32 -14.5 -51 t-55.5 -25t-227 -27q126 -101 163 -140.5t37 -74.5q0 -30 -24 -49.5t-53 -19.5q-11 0 -20 2t-17.5 8t-15 12.5t-14.5 20.5t-14.5 26t-16 35t-17.5 41.5t-21.5 52t-25.5 60.5q-64 -164 -94 -211t-70 -47q-28 0 -53 21t-25 52q0 30 41.5 74t165.5 139q-188 20 -225 25 q-39 6 -55.5 21.5t-16.5 52.5z" />
<glyph unicode="+" horiz-adv-x="1189" d="M121 539v120h416v416h120v-416h412v-120h-412v-416h-120v416h-416z" />
<glyph unicode="," horiz-adv-x="411" d="M51 -311q71 79 103 134t32 103q0 54 -47 101q-30 27 -30 73q0 42 28.5 70.5t71.5 28.5q58 0 88.5 -41.5t30.5 -110.5q0 -206 -224 -412z" />
<glyph unicode="-" horiz-adv-x="544" d="M63 391v131h420v-131h-420z" />
<glyph unicode="." horiz-adv-x="407" d="M98 90q0 46 29 77.5t74 31.5q50 0 80 -30t30 -75q0 -53 -28.5 -83.5t-79.5 -30.5q-47 0 -76 31t-29 79z" />
<glyph unicode="/" horiz-adv-x="708" d="M53 -141l475 1542h115l-477 -1542h-113z" />
<glyph unicode="0" d="M74 608q0 313 137 499.5t352 186.5q210 0 332.5 -166.5t122.5 -447.5q0 -335 -129 -522t-344 -187q-220 0 -345.5 171.5t-125.5 465.5zM244 643q0 -293 77.5 -432t233.5 -139q139 0 215 138t76 419q0 563 -295 563q-145 0 -226 -136t-81 -413z" />
<glyph unicode="1" d="M260 1137q191 84 358 168l39 -25q-10 -245 -10 -502v-545q0 -99 15 -116q22 -29 186 -37v-82q-172 4 -281 4q-102 0 -278 -4v82q167 15 182 35q18 20 18 123v528q0 191 -8 256q-6 57 -55 57q-68 0 -143 -20z" />
<glyph unicode="2" d="M59 0v104q143 104 240.5 180t190 161t146.5 155.5t86 147.5t32 153q0 258 -256 258q-66 0 -154 -38t-156 -103l-63 80q202 196 440 196q163 0 264 -96.5t101 -263.5q0 -104 -44 -203t-133.5 -195.5t-206 -187t-280.5 -194.5q134 1 295 2t250 1.5t145 0.5v-158h-897z" />
<glyph unicode="3" d="M125 59q629 3 629 338q0 107 -75 167.5t-214 60.5q-88 0 -164 -13l-14 95q94 16 149 34q246 77 246 265q0 159 -188 159q-68 0 -147 -31.5t-146 -86.5l-62 83q94 75 199 116.5t205 41.5q149 0 228 -70.5t79 -181.5q0 -215 -270 -321q178 -7 263 -84.5t85 -210.5 q0 -80 -37 -152t-98.5 -124.5t-137 -95t-155 -69t-151 -40t-126.5 -13.5q-72 0 -90 66q-8 18 -8 67z" />
<glyph unicode="4" d="M66 311v86l630 881h133q-2 -82 -2 -274v-551h195v-140h-193v-368h-159v366h-604zM233 449h437q0 392 6 641z" />
<glyph unicode="5" d="M131 59q151 0 262 17t194.5 55t125 104t41.5 160q0 46 -14.5 86.5t-53 81t-98.5 70.5t-157.5 51.5t-223.5 28.5l135 555h612l-28 -152h-516l-70 -278q160 -8 276.5 -44t182.5 -93t96.5 -125t30.5 -150t-33 -155.5t-88.5 -126.5t-125.5 -96t-146.5 -69t-149.5 -39.5 t-137 -13.5q-94 0 -107 66q-8 50 -8 67z" />
<glyph unicode="6" d="M113 465q0 122 29 232.5t76 193.5t114 156t135 124t147 93.5t143 68t130 45.5l35 -86q-275 -110 -425 -258t-202 -395q46 64 137 108t201 44q90 0 160.5 -32.5t113 -87t64.5 -120.5t22 -139q0 -122 -50 -220.5t-153.5 -159.5t-246.5 -61q-107 0 -191 41.5t-135 112 t-77.5 157.5t-26.5 183zM283 487q0 -210 77 -312.5t201 -102.5q128 0 199 81.5t71 219.5q0 136 -65.5 219.5t-202.5 83.5q-89 0 -167.5 -49t-112.5 -111v-29z" />
<glyph unicode="7" d="M102 1116v152h871l24 -43l-591 -1305l-117 41l551 1155h-738z" />
<glyph unicode="8" d="M125 303q0 213 281 344q-66 39 -112.5 81.5t-70 84t-33.5 79.5t-10 79q0 141 103.5 232t285.5 91q171 0 262 -79.5t91 -217.5q0 -185 -242 -313q158 -89 221.5 -172t63.5 -190q0 -148 -120.5 -248.5t-307.5 -100.5q-183 0 -297.5 92t-114.5 238zM274 311 q0 -112 74 -178.5t193 -66.5q113 0 184.5 60.5t71.5 156.5q0 100 -73 168.5t-251 150.5q-199 -117 -199 -291zM338 1008q0 -85 57.5 -151t202.5 -134q184 123 184 270q0 93 -57 153t-160 60t-165 -55.5t-62 -142.5z" />
<glyph unicode="9" d="M96 854q0 122 50.5 220.5t154.5 159t246 60.5q107 0 191.5 -41.5t135.5 -112t77 -157t26 -182.5q0 -122 -29 -232.5t-76 -193.5t-113 -156t-134.5 -124t-147 -94t-143 -68.5t-129.5 -45.5l-37 86q136 54 235 113t180.5 136.5t134 177.5t79.5 227q-48 -64 -138 -108 t-200 -44q-90 0 -161 32.5t-114 87t-65.5 121t-22.5 138.5zM260 893q0 -136 64.5 -219.5t201.5 -83.5q90 0 168.5 49t114.5 111v28q0 210 -78 313t-203 103q-128 0 -198 -81.5t-70 -219.5z" />
<glyph unicode=":" horiz-adv-x="448" d="M137 90q0 46 30 77.5t75 31.5q49 0 79.5 -30t30.5 -75q0 -52 -29 -83t-79 -31q-47 0 -77 31t-30 79zM137 690q0 46 29.5 76.5t75.5 30.5q49 0 79.5 -29t30.5 -74q0 -52 -29 -83t-79 -31q-47 0 -77 31t-30 79z" />
<glyph unicode=";" horiz-adv-x="448" d="M90 -311q70 78 101.5 133t31.5 104q0 59 -45 101q-33 29 -33 73q0 42 29.5 70.5t73.5 28.5q57 0 87 -41.5t30 -110.5q0 -208 -222 -412zM137 690q0 46 29.5 76.5t75.5 30.5q49 0 79.5 -29t30.5 -74q0 -52 -29 -83t-79 -31q-47 0 -77 31t-30 79z" />
<glyph unicode="&#x3c;" horiz-adv-x="1224" d="M195 526v129l788 396v-138l-664 -319l664 -315v-144z" />
<glyph unicode="=" horiz-adv-x="1224" d="M158 373v123h909v-123h-909zM158 707v120h909v-120h-909z" />
<glyph unicode="&#x3e;" horiz-adv-x="1224" d="M244 135v139l659 322l-659 311v144l786 -389v-130z" />
<glyph unicode="?" horiz-adv-x="761" d="M94 1290q3 80 96 80q66 0 135 -18.5t133 -54.5t114 -84.5t80 -114t30 -137.5q0 -107 -62.5 -184t-218.5 -142q-58 -22 -69 -100q-2 -14 -4.5 -59t-5.5 -77h-76q-15 135 -15 222q0 61 26 90t81 53q49 21 74 32.5t54 30t41.5 37t21 45.5t8.5 64q0 46 -16 87t-51.5 79 t-104 60t-162.5 22q-65 0 -105 -9q-4 46 -4 78zM182 90q0 46 30 77.5t75 31.5q49 0 79.5 -30t30.5 -75q0 -52 -29 -83t-79 -31q-47 0 -77 31t-30 79z" />
<glyph unicode="@" horiz-adv-x="1568" d="M113 379q0 155 56.5 299t156.5 254.5t247.5 177t317.5 66.5q125 0 224.5 -33.5t160 -84.5t100.5 -117.5t55 -126.5t15 -118q0 -154 -68.5 -285.5t-191.5 -220.5q-62 -47 -132.5 -73.5t-111.5 -26.5q-31 0 -47 17.5t-16 66.5q0 24 2 53q-179 -141 -328 -141 q-61 0 -99 41.5t-38 120.5q0 125 58.5 259t158.5 228q78 72 184 96q81 17 213 17l23 47l88 -10l-109 -449q-26 -107 -26 -186q0 -18 7 -29.5t19 -11.5q22 0 59 15.5t68 43.5q89 76 134.5 189.5t45.5 242.5q0 177 -125.5 283.5t-326.5 106.5q-189 0 -336.5 -91.5t-229 -255.5 t-81.5 -372q0 -241 154 -386t401 -145q353 0 585 207l54 -61q-135 -122 -301 -183t-345 -61q-309 0 -492 170.5t-183 466.5zM545 289q0 -40 19 -63t54 -23q98 0 267 92l96 395q2 10 2 25q0 20 -22 26q-37 11 -89 11q-124 0 -196 -97q-64 -86 -97.5 -185t-33.5 -181z" />
<glyph unicode="A" horiz-adv-x="1361" d="M8 -2v80q96 9 131 35q24 20 44.5 59.5t62.5 140.5l401 1000h105l372 -1008q36 -96 56 -138t43 -61q21 -16 131 -28v-80q-204 4 -244 4q-73 0 -307 -4v80q80 6 120.5 14.5t53 19.5t12.5 31q0 46 -47 170l-59 162h-451l-61 -160q-35 -93 -44.5 -123t-9.5 -51 q0 -31 39 -42.5t172 -20.5v-80q-212 4 -274 4q-54 0 -246 -4zM465 571h385q-138 375 -184 519q-57 -158 -201 -519z" />
<glyph unicode="B" horiz-adv-x="1224" d="M47 -2v82q123 9 150 18q17 7 23.5 15t11 34t4.5 80v856q0 95 -15 113q-26 26 -174 33v82h354q213 0 340 -15q157 -20 232.5 -96t75.5 -196q0 -245 -277 -308q176 -17 265 -98t89 -219q0 -112 -43 -188.5t-151 -129.5q-58 -29 -149.5 -47t-192.5 -18q-39 0 -136 3t-153 3 q-98 0 -254 -4zM399 182q0 -36 12.5 -47.5t51.5 -19.5q80 -13 135 -13q165 0 257.5 66t92.5 197q0 79 -35 137.5t-98 87.5q-108 51 -371 51h-45v-459zM399 739h52q57 0 135 6.5t104 12.5q98 24 141 79t43 148q0 81 -43 134.5t-122 72.5q-85 18 -310 18v-471z" />
<glyph unicode="C" horiz-adv-x="1390" d="M94 631q0 218 92.5 378.5t260 244t391.5 83.5q207 0 344 -43q50 -16 65 -65q15 -54 15 -275l-82 -6q-30 137 -60 191q-6 15 -24 31.5t-39 25.5q-83 39 -238 39q-245 0 -394 -153t-149 -433q0 -267 144 -420t387 -153q135 0 217 30q44 16 80 56q41 50 104 200l80 -14 q-19 -138 -59 -250q-18 -56 -78 -78q-128 -49 -365 -49q-153 0 -279.5 43t-218.5 125t-143 208t-51 284z" />
<glyph unicode="D" horiz-adv-x="1445" d="M47 -2v82q149 11 172 31q11 11 14 31.5t3 78.5v860q0 92 -13 109q-12 18 -42.5 24.5t-133.5 14.5v82h283q310 0 476.5 -25t270.5 -82q277 -152 277 -524q0 -342 -192.5 -513t-538.5 -171q-23 0 -156 3t-164 3q-64 0 -256 -4zM401 188q0 -37 14 -51t52 -20q66 -13 207 -13 q238 0 367.5 144t129.5 416q0 175 -72 300.5t-198 178.5q-156 67 -500 67v-1022z" />
<glyph unicode="E" horiz-adv-x="1163" d="M51 0v80q149 13 164 26q21 21 21 130v845q0 95 -15 113q-24 27 -170 35v80h817q77 0 98.5 -12.5t24.5 -47.5q10 -92 10 -260l-75 -4q-20 89 -34.5 131t-33.5 58q-28 22 -84.5 28t-200.5 6q-123 0 -172 -4v-481h19q166 0 227.5 7t85.5 30q26 21 45 131h78q-2 -49 -2 -209 q0 -141 2 -223h-76q-22 116 -45 137q-22 22 -81.5 26.5t-237.5 4.5h-15v-430q0 -40 12.5 -58t45.5 -24q82 -15 164 -15q243 0 295 52q34 34 106 206l74 -14q-26 -209 -54 -291q-12 -33 -41 -43t-98 -10h-854z" />
<glyph unicode="F" horiz-adv-x="1099" d="M51 0v80q140 10 162 26q14 11 18.5 39.5t4.5 87.5v852q0 93 -15 111q-21 24 -170 33v80h821q76 0 98 -13t25 -47q15 -139 15 -262l-76 -4q-39 162 -74 188q-27 22 -80 28.5t-202 8.5q-91 0 -177 -4v-499h19q171 0 234 6.5t87 29.5q23 23 43 133h80q-6 -147 -6 -210 q0 -142 2 -224h-78q-20 107 -31 126q-3 7 -8 12q-23 22 -85 27t-238 5h-19v-366q0 -106 19 -125q29 -29 196 -39v-82q-172 4 -292 4q-185 0 -273 -2z" />
<glyph unicode="G" horiz-adv-x="1452" d="M94 633q0 323 202 513.5t550 190.5q217 0 342 -43q51 -18 63 -71q15 -61 15 -269l-84 -6q-23 93 -36.5 136.5t-29.5 66.5q-16 29 -65 49q-89 35 -234 35q-241 0 -391 -153.5t-150 -432.5q0 -267 144 -420t379 -153q122 0 217 26q47 15 61 33q15 25 15 148v90 q0 79 -23 102q-21 21 -162 35v84q57 -2 236 -2q161 0 237 2v-84q-89 -6 -112 -29q-15 -18 -15 -106v-252q0 -49 -16.5 -68t-60.5 -32q-176 -52 -390 -52q-205 0 -359.5 75t-243.5 226t-89 361z" />
<glyph unicode="H" horiz-adv-x="1521" d="M47 -2v82q148 12 170 31q19 16 19 122v846q0 103 -19 119q-22 19 -170 31v82q188 -4 272 -4q99 0 279 4v-82q-161 -11 -180 -33q-17 -17 -17 -115v-346h713v344q0 105 -16 119q-19 19 -172 31v82q188 -4 274 -4q97 0 277 4v-82q-159 -11 -181 -33q-16 -19 -16 -115v-854 q0 -95 16 -114q22 -22 181 -33v-82q-180 4 -277 4q-86 0 -274 -4v82q153 12 172 31q16 14 16 122v402h-713v-408q0 -97 17 -114q19 -22 180 -33v-82q-180 4 -279 4q-84 0 -272 -4z" />
<glyph unicode="I" horiz-adv-x="643" d="M47 -2v82q148 9 170 31q19 19 19 122v846q0 103 -19 119q-22 19 -170 31v82q184 -4 272 -4q99 0 279 4v-82q-160 -11 -182 -33q-15 -18 -15 -115v-854q0 -97 15 -114q22 -22 182 -33v-82q-180 4 -279 4q-88 0 -272 -4z" />
<glyph unicode="J" horiz-adv-x="614" d="M27 -264q115 104 162 214t49 263q2 322 2 854q0 110 -21 131q-18 18 -153 29q-4 1 -6.5 1t-7 0.5t-7.5 0.5v82q222 -4 274 -4q87 0 271 4v-82q-82 -9 -119.5 -16t-48.5 -19q-16 -19 -16 -117q0 -165 1 -441.5t1 -363.5q0 -221 -66 -327q-92 -146 -260 -271z" />
<glyph unicode="K" horiz-adv-x="1304" d="M47 -2v82q148 12 170 31q19 16 19 122v846q0 103 -19 119q-22 19 -170 31v82q184 -4 272 -4q99 0 279 4v-82q-160 -11 -182 -33q-10 -10 -12.5 -32.5t-2.5 -82.5v-854q0 -97 15 -114q22 -22 182 -33v-82q-180 4 -279 4q-88 0 -272 -4zM434 672q235 209 385 385 q51 58 66.5 82.5t15.5 44.5q0 13 -9 21.5t-42.5 15t-93.5 8.5v82q92 -4 284 -4q138 0 226 4v-82q-84 -7 -125 -29q-44 -23 -117 -96q-61 -64 -125 -127.5t-148.5 -145t-125.5 -122.5q218 -279 364 -429t305 -268l-39 -65q-169 45 -294 145q-106 88 -251.5 249t-275.5 331z " />
<glyph unicode="L" horiz-adv-x="1150" d="M49 0v80q137 9 162 31q22 20 22 131v841q0 59 -4.5 82.5t-17.5 34.5q-23 18 -162 29v82q111 -4 268 -4q65 0 265 4v-82q-142 -6 -166 -33q-17 -24 -17 -109v-890q0 -40 12.5 -58t45.5 -24q103 -15 164 -15q256 0 301 62q34 43 102 196l72 -14q-29 -197 -45 -258 q-13 -50 -37.5 -68t-93.5 -18h-871z" />
<glyph unicode="M" horiz-adv-x="1724" d="M29 -2v82q134 6 157 26q15 14 22 46.5t11 115.5q39 810 39 860q0 54 -14 68q-10 12 -43 19t-133 14v82q92 -4 208 -4q152 0 185 2q48 -141 393 -1035q128 319 227 561.5t137 335t56 140.5q51 -4 186 -4q108 0 226 4v-82q-167 -10 -185 -31q-16 -21 -16 -106 q0 -80 10 -830q2 -131 12 -145q10 -15 43.5 -22.5t147.5 -14.5v-82q-208 4 -299 4q-14 0 -264 -4v82q97 6 132 13.5t46 21.5q12 20 12 94q0 190 -4 905q-169 -414 -461 -1114h-76q-103 266 -194 498.5t-124 316.5t-59.5 153t-46.5 124q-26 -783 -26 -895q0 -79 22 -91 q11 -6 21.5 -9t48 -7.5t109.5 -9.5v-82q-180 4 -238 4q-60 0 -268 -4z" />
<glyph unicode="N" horiz-adv-x="1509" d="M43 1229v82q98 -4 188 -4q86 0 160 4q316 -412 778 -1002q-2 111 -4 280.5t-3 290.5t-3 150q-1 23 -2.5 54t-2.5 43t-2.5 28t-4 24t-6.5 15q-8 13 -43 21t-129 14v82q230 -4 248 -4q34 0 260 4v-82q-99 -8 -133.5 -14t-47.5 -19q-12 -12 -15 -43t-3 -123q0 -98 -1 -334 t-1 -354q0 -268 2 -342h-98q-143 208 -836 1085q1 -111 3 -303.5t3.5 -336t1.5 -166.5q0 -90 3.5 -122t15.5 -44q13 -13 48.5 -19t133.5 -14v-82q-222 4 -258 4q-22 0 -248 -4v82q64 4 102.5 10t52 12t19.5 15q10 14 12.5 46.5t2.5 117.5q0 95 1 278t2 327l1 144 q0 125 -11 144q-27 45 -186 55z" />
<glyph unicode="O" horiz-adv-x="1501" d="M94 655q0 147 51 275t139 217t209 139.5t257 50.5q308 0 482.5 -180.5t174.5 -492.5q0 -201 -84.5 -360t-232 -246t-330.5 -87q-206 0 -358 89t-230 243t-78 352zM276 680q0 -288 133.5 -447t356.5 -159q213 0 338 148.5t125 410.5q0 274 -132 439t-352 165 q-211 0 -340 -150.5t-129 -406.5z" />
<glyph unicode="P" horiz-adv-x="1173" d="M47 -2v82q126 10 154 22q22 9 28.5 33t6.5 96v861q0 57 -5 77t-16 31q-26 22 -168 29v82h369q236 0 356 -21q155 -26 239.5 -119t84.5 -241q0 -190 -135.5 -291.5t-387.5 -101.5q-55 0 -172 10v-318q0 -60 3 -82.5t16 -33.5q25 -22 192 -33v-82q-212 4 -266 4 q-73 0 -299 -4zM401 643q71 -6 144 -6q178 0 272 65.5t94 212.5q0 221 -194 273q-88 24 -316 24v-569z" />
<glyph unicode="Q" horiz-adv-x="1501" d="M94 655q0 147 51 275t139 217t209 139.5t257 50.5q308 0 482.5 -180.5t174.5 -492.5q0 -260 -138 -443t-360 -233q184 -137 328 -201q164 -75 336 -109l-12 -81q-254 12 -459 104q-228 102 -459 279q-171 24 -296 116.5t-189 236t-64 322.5zM276 680q0 -288 133.5 -447 t356.5 -159q213 0 338 148.5t125 410.5q0 274 -132 439t-352 165q-211 0 -340 -150.5t-129 -406.5z" />
<glyph unicode="R" horiz-adv-x="1280" d="M47 -2v82q157 10 176 35q13 18 13 118v850q0 89 -15 111q-15 24 -174 35v82h299q250 0 404 -23q146 -22 225.5 -111.5t79.5 -232.5q0 -111 -70.5 -202t-198.5 -136q93 -160 148.5 -243.5t118.5 -153.5q86 -105 219 -195l-37 -63q-93 30 -158.5 65t-124.5 88 q-72 65 -152 171.5t-196 295.5q-2 0 -39.5 -1t-58.5 -1q-55 0 -105 4v-337q0 -99 15 -117q24 -32 184 -39v-82q-212 4 -301 4q-26 0 -252 -4zM401 674q57 -8 117 -8q179 0 266.5 72t87.5 196q0 93 -45 157.5t-125 94.5q-89 33 -301 33v-545z" />
<glyph unicode="S" horiz-adv-x="1017" d="M86 360l84 7q41 -172 80 -211q80 -80 252 -80q125 0 201.5 57t76.5 139q0 42 -8.5 72.5t-35 65t-77 69.5t-131.5 78l-116 61q-167 87 -227 172t-60 201q0 107 62.5 187t167 119.5t235.5 39.5q133 0 250 -30q22 -6 36.5 -21t18.5 -51q12 -108 12 -260l-82 -4 q-38 151 -59 186q-26 41 -77 60.5t-152 19.5q-111 0 -184.5 -56t-73.5 -147q0 -79 45.5 -132.5t167.5 -121.5l120 -67q193 -109 259.5 -185t66.5 -194q0 -160 -127 -262.5t-334 -102.5q-173 0 -303 49q-39 14 -55 36t-19 69q-8 69 -14 237z" />
<glyph unicode="T" horiz-adv-x="1275" d="M55 956q6 174 17 297q3 56 63 56h1008q38 0 51 -12t16 -46q9 -128 9 -290l-80 -5q-15 71 -22 98.5t-20 61t-30 49.5q-25 24 -100 34t-250 11v-962q0 -67 2 -92t10 -37q10 -16 53.5 -24t137.5 -15v-82q-152 4 -271 4q-127 0 -291 -4v82q164 10 183 41q10 20 10 125v964 q-85 -1 -122.5 -2t-86 -3.5t-72.5 -8t-39 -14.5q-29 -17 -48 -62.5t-52 -169.5z" />
<glyph unicode="U" horiz-adv-x="1464" d="M29 1229v82q156 -4 288 -4q105 0 269 4v-82q-165 -10 -187 -35q-18 -21 -18 -104q-2 -150 -2 -482q0 -243 35 -332q73 -188 348 -188q112 0 198.5 39t124.5 102q64 115 64 418q0 72 -10 430q-3 109 -27 123q-6 4 -13 7t-13 5t-17 4t-18.5 3t-22.5 2.5t-24.5 2.5 t-30.5 2.5t-33 2.5v82q80 -2 244 -2q21 0 118 1t138 1v-82q-94 -7 -130 -16t-44 -25q-13 -26 -13 -123v-473q0 -189 -24.5 -292.5t-85.5 -170.5q-144 -160 -428 -160q-157 0 -267 51t-163 132q-42 62 -57 154t-15 292q0 91 1 257.5t1 225.5q0 90 -12 109q-10 17 -45.5 25 t-128.5 14z" />
<glyph unicode="V" horiz-adv-x="1357" d="M10 1229v82q102 -4 273 -4q161 0 278 4v-82q-121 -8 -157.5 -19t-36.5 -43q0 -29 49 -174q16 -48 84.5 -236.5t129.5 -355t64 -180.5q4 11 137 356.5t156 411.5q47 128 47 176q0 28 -38 42.5t-152 21.5v82q106 -4 256 -4q152 0 248 4v-82q-99 -11 -131 -39 q-41 -39 -103 -195l-403 -1005h-105l-373 1014q-26 67 -36.5 93.5t-27 57t-32.5 43.5q-25 19 -127 31z" />
<glyph unicode="W" horiz-adv-x="1921" d="M20 1229v82q262 -4 277 -4q192 0 274 4v-82q-88 -4 -131 -11.5t-57 -20t-14 -36.5q0 -38 32 -162l193 -733l352 1043h94l332 -1047l191 717q32 124 32 168q0 26 -14 40t-57.5 24t-132.5 18v82q204 -4 266 -4q81 0 237 4v-82q-45 -5 -63 -8t-39.5 -10.5t-34.5 -20.5 q-7 -7 -12 -14t-10 -18.5t-8.5 -21t-9.5 -30t-10.5 -37.5t-14 -51.5t-17.5 -63.5l-274 -964h-105l-333 1034l-357 -1034h-106l-283 1048q-24 86 -40.5 123.5t-39.5 48.5q-42 17 -117 19z" />
<glyph unicode="X" horiz-adv-x="1345" d="M14 -2v80q119 12 148 37q50 45 131 153l293 398l-281 405q-76 111 -108 133q-38 22 -119 25v82q72 0 167 -2t120 -2q31 0 131 2t133 2v-82q-108 -4 -139 -15t-31 -38q0 -32 59 -121l191 -283l186 260q72 102 72 146q0 16 -8 25t-45.5 16.5t-110.5 9.5v82q32 0 125 -2 t121 -2q81 0 233 4v-82q-76 -2 -117 -27q-11 -7 -26 -25t-52.5 -67t-64.5 -84l-256 -332l293 -420q82 -119 125 -157q35 -31 143 -39v-80q-262 4 -285 4q-32 0 -274 -4v80q100 6 135 17.5t35 39.5q0 23 -49 92l-242 355l-233 -342q-54 -76 -54 -105q0 -28 35.5 -38.5 t143.5 -18.5v-80q-218 4 -277 4q-14 0 -248 -4z" />
<glyph unicode="Y" horiz-adv-x="1259" d="M8 1229v82q238 -4 250 -4q47 0 281 4v-82q-78 -3 -117 -9t-49.5 -13.5t-10.5 -22.5q0 -37 97 -197l207 -336l217 361q82 141 82 176q0 24 -34.5 31.5t-129.5 9.5v82q100 -4 248 -4q108 0 202 4v-82q-73 -6 -106 -27q-4 -3 -8.5 -6.5t-10 -10t-10 -12.5t-12.5 -17 t-13.5 -19.5t-16 -24.5t-18 -27t-21 -32.5t-23.5 -36.5l-303 -471v-330q0 -75 8 -94q6 -18 43.5 -26.5t150.5 -14.5v-82q-226 4 -274 4q-63 0 -281 -4v82q104 6 136.5 13.5t42.5 23.5q12 17 12 98v328l-324 526q-8 13 -23.5 38t-21.5 34t-16 23.5t-17.5 22.5t-15.5 15 q-33 24 -121 27z" />
<glyph unicode="Z" horiz-adv-x="1232" d="M61 0v66l834 1146q-359 -4 -476 -11t-140 -23q-28 -19 -44.5 -56.5t-48.5 -154.5l-73 4q6 157 16 274q3 64 68 64h923v-58l-827 -1140q144 -7 282 -7q235 0 315.5 12t117.5 46q37 37 77 211l74 -4q0 -87 -10 -297q-2 -36 -19.5 -54t-66.5 -18h-1002z" />
<glyph unicode="[" horiz-adv-x="610" d="M205 -332v1796h379v-84h-236v-1628h236v-84h-379z" />
<glyph unicode="\" horiz-adv-x="708" d="M72 1401h112l478 -1542h-115z" />
<glyph unicode="]" horiz-adv-x="610" d="M29 -248h235v1628h-235v84h379v-1796h-379v84z" />
<glyph unicode="^" horiz-adv-x="1085" d="M176 715l307 653h127l297 -653h-131l-233 520l-234 -520h-133z" />
<glyph unicode="_" horiz-adv-x="997" d="M-4 -147h1005v-103h-1005v103z" />
<glyph unicode="`" horiz-adv-x="598" d="M127 1284q0 29 25.5 50.5t54.5 21.5q28 0 44 -13t48 -63l172 -262l-57 -41l-232 217q-55 52 -55 90z" />
<glyph unicode="a" horiz-adv-x="933" d="M84 221q0 45 12 78.5t45.5 64t89.5 50t147 31t216 12.5q0 98 -6 138t-21 64q-41 68 -168 68q-55 0 -119.5 -17t-113.5 -44q-19 33 -19 59q0 27 16.5 47t63.5 39q97 43 240 43q71 0 128 -19.5t87 -52.5q55 -58 55 -182q0 -16 -1 -176t-1 -170q0 -77 17 -115.5t67 -38.5 q18 0 70 13l24 -60q-92 -76 -176 -76q-49 0 -80.5 29.5t-44.5 79.5q-125 -109 -280 -109q-105 0 -176.5 69.5t-71.5 174.5zM238 225q0 -52 43 -92.5t110 -40.5q41 0 80.5 9t64.5 19.5t64 29.5l-6 219q-92 -2 -158.5 -10.5t-104 -21t-59 -32t-28 -37.5t-6.5 -43z" />
<glyph unicode="b" horiz-adv-x="1060" d="M35 1331v47q165 109 244 109q43 0 43 -62q0 -72 -1.5 -351t-1.5 -335q76 50 165 80.5t149 30.5q163 0 255.5 -111t92.5 -286q0 -206 -125 -336.5t-344 -130.5q-135 0 -223 28l-35 -73l-76 10q6 125 6 328q0 65 -3 322.5t-3 473.5q0 100 -5.5 141.5t-20.5 63.5 q-27 42 -117 51zM319 666q0 -448 7 -484q6 -40 30 -57q57 -37 185 -37q129 0 211 77t82 222q0 332 -281 332q-109 0 -234 -53z" />
<glyph unicode="c" horiz-adv-x="860" d="M80 385q0 201 133.5 334t333.5 133q120 0 196 -39q35 -15 35 -49q0 -49 -55 -119q-39 34 -110.5 57t-141.5 23q-112 0 -183 -73.5t-71 -229.5q0 -147 85 -231.5t220 -84.5q116 0 256 74l37 -71q-190 -138 -350 -138q-175 0 -280 116t-105 298z" />
<glyph unicode="d" horiz-adv-x="1112" d="M80 375q0 207 136 340t359 133q88 0 185 -19v248q0 104 -5 142.5t-20 60.5q-29 39 -119 51v47q165 109 242 109q47 0 47 -60q0 -55 -1 -422t-1 -708q0 -77 7 -114t21.5 -48.5t45.5 -11.5q24 0 90 4v-72q-160 -82 -219 -82q-41 0 -57 26t-27 95q-149 -119 -315 -119 t-267.5 115t-101.5 285zM229 442q0 -174 79.5 -260t211.5 -86q120 0 242 74l-2 401q0 98 -19 117q-24 25 -77.5 43.5t-120.5 18.5q-134 0 -224 -79t-90 -229z" />
<glyph unicode="e" horiz-adv-x="899" d="M80 393q0 108 34 196t93 144.5t135 87.5t162 31q71 0 129 -20.5t96 -54t63.5 -78t36.5 -91t11 -94.5q0 -59 -76 -59h-545v-19q0 -152 80.5 -242t220.5 -90t291 74l37 -72q-188 -135 -369 -135q-185 0 -292 117.5t-107 304.5zM223 535l469 16q-9 99 -68.5 151t-148.5 52 q-99 0 -168 -58t-84 -161z" />
<glyph unicode="f" horiz-adv-x="618" d="M45 709v65q39 12 113 29q28 6 38.5 25t10.5 69q3 200 39 307.5t121 175.5q128 101 276 101q100 0 162 -29q35 -14 35 -47q0 -35 -56 -115q-40 32 -101 49t-116 17q-100 0 -159 -74q-58 -73 -58 -285v-188q130 0 260 -10v-90q-117 -13 -258 -13q0 -2 -0.5 -95t-1 -203.5 t-0.5 -155.5q0 -70 5 -94.5t20 -38.5q21 -18 174 -31v-80q-180 4 -254 4q-48 0 -232 -4v80q8 1 22 2q83 8 101 20q24 15 26 73q1 12 1 30q-4 286 -4 493q-97 0 -164 13z" />
<glyph unicode="g" horiz-adv-x="956" d="M18 -281q0 66 60 123q59 56 188 109q-78 21 -111.5 55.5t-33.5 83.5q0 80 127 176q-146 84 -146 262q0 139 103 231.5t256 92.5q107 0 188 -41q190 0 293 -14v-88q-70 -11 -176 -15q35 -52 35 -151q0 -148 -99 -234t-266 -86q-78 0 -125 15q-57 -57 -57 -105 q0 -15 12.5 -31.5t32.5 -25.5q8 -3 16.5 -6t22 -5t23 -3t29.5 -2.5t31 -2t39 -2t42 -2.5q171 -13 209 -18q121 -14 174 -60.5t53 -144.5q0 -158 -145 -268.5t-365 -110.5q-188 0 -299 79.5t-111 188.5zM164 -268q0 -74 76 -126t233 -52q140 0 227.5 66.5t87.5 150.5 q0 51 -27 82t-101.5 49t-204.5 18q-71 0 -117 -16q-174 -68 -174 -172zM258 557q0 -250 197 -250q89 0 144.5 55.5t55.5 145.5q0 254 -202 254q-87 0 -141 -56.5t-54 -148.5z" />
<glyph unicode="h" horiz-adv-x="1095" d="M55 -2v80q69 6 94.5 11.5t36.5 16.5q17 17 17 97q0 101 -2 469t-2 397q0 97 -11 166q-17 85 -133 96v47q170 109 242 109q43 0 43 -57q0 -73 1 -359.5t1 -343.5q168 123 320 123q107 0 172 -59q38 -34 54.5 -88t16.5 -148q0 -9 -3 -177t-3 -173q0 -78 12 -96 q22 -22 142 -31v-80q-164 4 -232 4q-35 0 -207 -4v80q114 8 134 28q16 20 16 101q0 235 -4 325q-7 99 -35 132q-41 57 -150 57q-48 0 -115 -14t-118 -43q0 -22 -1 -240.5t-1 -220.5q0 -78 16 -97q16 -16 140 -28v-80q-168 4 -240 4q-33 0 -201 -4z" />
<glyph unicode="i" horiz-adv-x="552" d="M59 -2v80q71 6 96 11.5t38 16.5q16 16 16 97q0 289 -6 360q-3 57 -21 82q-25 28 -116 45v47q151 111 231 111q51 0 51 -72q0 -47 -0.5 -186t-1 -261t-0.5 -126q0 -74 14 -94q17 -22 146 -31v-80q-164 4 -225 4q-50 0 -222 -4zM152 1223q0 45 29 75.5t73 30.5t74 -31 t30 -75q0 -43 -30 -74t-74 -31t-73 31t-29 74z" />
<glyph unicode="j" horiz-adv-x="505" d="M37 -471q87 100 119 170q47 96 47 278q0 7 1 59t2 128t1 141q0 198 -4 264q-6 54 -25 76q-22 28 -115 45v47q154 111 238 111q22 0 35.5 -17.5t13.5 -50.5q0 -20 -2 -143t-2 -180q0 -84 1.5 -190t3 -180t1.5 -81q0 -119 -14 -191t-55 -137q-50 -78 -187 -202zM145 1223 q0 45 29.5 75.5t73.5 30.5t74 -31t30 -75q0 -43 -30 -74t-74 -31t-73.5 31t-29.5 74z" />
<glyph unicode="k" horiz-adv-x="1009" d="M55 -2v80q72 8 96.5 13t34.5 15q17 17 17 99q0 102 -2 490t-2 417q0 78 -5 113.5t-22 56.5q-29 38 -117 49v47q171 109 244 109q43 0 43 -57q0 -232 -1 -623t-1 -600q0 -52 3 -71.5t13 -29.5q19 -19 146 -28v-80q-172 4 -240 4q-43 0 -207 -4zM367 442q57 44 192 170 q19 17 31.5 30t20.5 24t11 20t3 19q0 20 -21 30t-86 13v79q90 -4 230 -4q100 0 190 4v-79q-44 -5 -71.5 -11.5t-54.5 -22t-44 -29.5t-57 -50q-12 -11 -19 -17q-88 -77 -168 -141q103 -145 226 -263t243 -185l-37 -70q-165 43 -247 111q-88 71 -166.5 159t-175.5 213z" />
<glyph unicode="l" horiz-adv-x="544" d="M55 -2v80q72 8 96.5 13t34.5 15q17 17 17 99q0 102 -2 491t-2 418q0 81 -5.5 116t-23.5 56q-37 37 -115 45v47q174 109 244 109q43 0 43 -57q0 -232 -1 -622.5t-1 -600.5q0 -49 3.5 -68t12.5 -30q10 -12 38 -18.5t104 -12.5v-80q-172 4 -236 4q-47 0 -207 -4z" />
<glyph unicode="m" horiz-adv-x="1626" d="M61 -2v80q72 8 97 13t35 15q16 16 16 97q0 288 -4 356q-2 39 -8.5 61t-26.5 36t-39 19.5t-65 14.5v47q162 111 223 111q21 0 32 -14t17 -50l8 -55q163 121 307 121q75 0 134.5 -30t82.5 -93q83 60 169 91.5t153 31.5q107 0 172 -59q38 -35 56 -89.5t18 -146.5 q0 -9 -1 -177t-1 -173q0 -74 12 -92q17 -24 141 -35v-80q-160 4 -237 4q-33 0 -205 -4v80q112 10 133 31q16 16 16 98q0 235 -2 325q-3 96 -32 132q-47 57 -148 57q-46 0 -111 -14.5t-114 -42.5q8 -62 8 -111q0 -9 -2 -175.5t-2 -172.5q0 -74 14 -94q14 -22 140 -33v-80 q-164 4 -232 4q-47 0 -211 -4v80q111 8 131 31q19 19 19 98q0 136 -4 328q0 97 -40.5 141.5t-136.5 44.5q-46 0 -109.5 -14.5t-115.5 -42.5q0 -22 -1 -239.5t-1 -219.5q0 -52 3 -70.5t13 -28.5q9 -9 36 -15t102 -13v-80q-172 4 -238 4q-33 0 -201 -4z" />
<glyph unicode="n" horiz-adv-x="1103" d="M61 -2v80q73 8 97.5 13t34.5 15q16 16 16 97q0 292 -4 360q-1 24 -5 41.5t-12.5 30.5t-17.5 21t-27 14.5t-33.5 10.5t-43.5 9v47q153 111 225 111q24 0 35 -16.5t14 -61.5l6 -41q81 60 166 90.5t156 30.5q107 0 172 -59q38 -34 54.5 -88t16.5 -148q0 -8 -2 -177.5 t-2 -176.5q0 -62 11 -88q9 -12 36.5 -20t106.5 -15v-80q-164 4 -230 4q-45 0 -213 -4v80q112 7 132 31q18 14 18 98q0 141 -4 325q-4 97 -33 132q-41 57 -149 57q-49 0 -116 -14t-118 -43q0 -22 -1 -240.5t-1 -220.5q0 -51 3 -69t13 -28q16 -16 140 -28v-80q-168 4 -240 4 q-33 0 -201 -4z" />
<glyph unicode="o" horiz-adv-x="1013" d="M80 412q0 190 123 315t311 125q200 0 310 -115t110 -311q0 -142 -60.5 -247t-156.5 -155.5t-213 -50.5q-201 0 -312.5 121t-111.5 318zM238 440q0 -182 72 -275t200 -93q129 0 198.5 83t69.5 238q0 171 -69 268t-205 97q-125 0 -195.5 -84t-70.5 -234z" />
<glyph unicode="p" horiz-adv-x="1060" d="M37 -442q119 10 139 30q14 16 14 80q0 172 -10 895q0 70 -28.5 91.5t-110.5 35.5v47q155 111 227 111q39 0 45 -55l9 -60q75 56 163 86.5t144 30.5q112 0 193 -54.5t120 -144t39 -202.5q0 -208 -126.5 -336.5t-348.5 -128.5q-83 0 -180 22v-323q0 -75 18 -93 q11 -13 46 -19.5t116 -12.5v-80q-148 4 -244 4q-73 0 -225 -4v80zM324 670q0 -238 2 -428q0 -84 18 -105q42 -53 184 -53q134 0 221 76t87 223q0 166 -76.5 255t-214.5 89q-40 0 -108.5 -17t-112.5 -40z" />
<glyph unicode="q" horiz-adv-x="1097" d="M80 379q0 131 61 238t171 169t247 62q106 0 238 -21l45 76l73 -12q-14 -150 -14 -311v-818q0 -153 12 -172q11 -15 39.5 -22.5t102.5 -11.5v-78q-164 4 -234 4q-101 0 -241 -4v78q119 9 153 28q16 10 22.5 45.5t6.5 132.5v330q-70 -49 -151.5 -78.5t-143.5 -29.5 q-185 0 -286 108t-101 287zM229 442q0 -164 76.5 -253t214.5 -89q58 0 126 20.5t114 45.5v395q0 99 -27 133q-46 54 -188 54q-139 0 -227.5 -81.5t-88.5 -224.5z" />
<glyph unicode="r" horiz-adv-x="718" d="M61 -2v80q118 14 132 31q16 20 16 94v15.5t-0.5 44.5t-1 70.5t-1 102t-1.5 129.5q0 67 -30 89t-109 36v49q165 109 223 109q24 0 35 -14.5t14 -45.5l8 -75q33 49 100.5 93t122.5 44q49 0 91 -17t42 -53q0 -45 -63 -125q-79 54 -137 54q-73 0 -154 -62q0 -23 -1 -231 t-1 -209q0 -50 3.5 -68t15.5 -28q24 -24 165 -33v-80q-164 4 -268 4q-115 0 -201 -4z" />
<glyph unicode="s" horiz-adv-x="800" d="M100 264l72 4q31 -117 59 -149q47 -51 179 -51q75 0 121.5 31.5t46.5 82.5q0 38 -29.5 69t-108.5 64l-139 62q-95 40 -131.5 96.5t-36.5 132.5q0 107 90 176.5t244 69.5q102 0 170 -21q41 -14 45 -61q8 -71 8 -180l-74 -4q-18 84 -41 121q-18 29 -49 41t-94 12 q-80 0 -120 -35t-40 -78q0 -46 26 -78t118 -71l119 -52q109 -48 144.5 -98.5t35.5 -120.5q0 -112 -90.5 -184t-257.5 -72q-117 0 -201 35q-47 16 -57 68q-9 53 -9 190z" />
<glyph unicode="t" horiz-adv-x="606" d="M27 709v67q74 20 112 33q26 8 38 19.5t18 35.5q33 144 41 176h92v-231q74 0 258 -8v-92q-120 -13 -258 -13q0 -40 -0.5 -126.5t-1 -157.5t-0.5 -72q0 -121 8 -157q18 -76 90 -84q10 -1 20 -1q57 0 131 19l25 -78q-116 -55 -219 -55q-195 0 -195 235q0 291 4 477 q-93 0 -163 13z" />
<glyph unicode="u" horiz-adv-x="1097" d="M33 729v68q195 39 254 39q51 0 51 -48q0 -8 -7 -173.5t-7 -252.5q0 -136 46 -194.5t162 -58.5q90 0 211 57v393q0 70 -4 96t-16 37q-26 23 -150 37v68q189 39 273 39q53 0 53 -50q0 -6 -7 -184t-7 -323q0 -94 16 -127q12 -29 66 -29q26 0 84 4v-72q-158 -82 -222 -82 q-39 0 -55.5 26.5t-25.5 96.5q-146 -116 -289 -116q-151 0 -215 86t-64 249q0 16 1 110t1 130q0 71 -4 99t-16 38q-26 23 -129 37z" />
<glyph unicode="v" horiz-adv-x="968" d="M8 748v79q136 -4 203 -4q15 0 219 6v-81q-18 -2 -50 -4t-38 -3q-26 -4 -34.5 -13t-8.5 -28q0 -23 37 -114l174 -426l176 415q35 88 35 125q0 27 -27 35q-43 10 -102 13v79q118 -4 201 -4q56 0 170 4v-79q-73 -7 -95 -27q-6 -4 -11.5 -12t-10.5 -15.5t-12.5 -22.5 t-12 -25.5t-14.5 -32.5t-16 -35l-263 -586h-92l-264 606q-49 111 -74 129q-24 15 -90 21z" />
<glyph unicode="w" horiz-adv-x="1378" d="M16 748v79q86 -4 211 -4q130 0 230 4v-79q-70 0 -111 -5q-25 -3 -34 -11.5t-9 -29.5q0 -29 21 -104l116 -408l246 635h86l217 -635l121 385q23 90 23 123q0 27 -23 37q-38 10 -133 13v79q80 -4 219 -4q106 0 180 4v-79q-69 0 -96 -19q-17 -12 -31.5 -45t-42.5 -113 l-190 -579h-98l-216 629l-249 -629h-97l-182 602q-34 109 -51 127q-12 16 -35.5 20.5t-71.5 6.5z" />
<glyph unicode="x" horiz-adv-x="997" d="M18 -2v80q88 6 125 31q43 28 95 90l178 211l-199 254q-37 45 -70 65q-13 8 -92 19v79q92 -4 221 -4q97 0 193 4v-79q-57 -4 -75.5 -11.5t-18.5 -25.5q0 -17 51 -84l98 -131l94 120q54 65 54 97q0 17 -20.5 24.5t-80.5 10.5v79q80 -4 193 -4q106 0 176 4v-79 q-39 -4 -90 -25q-43 -21 -121 -115l-151 -176l184 -221q8 -8 24 -26.5t24 -27.5t22 -22t28 -24q36 -27 119 -33v-80q-192 4 -234 4q-21 0 -221 -4v80q73 6 97 14.5t24 26.5q0 20 -65 98l-107 129l-90 -115q-8 -10 -22 -28t-20.5 -27t-14.5 -20.5t-11.5 -19.5t-3.5 -15 q0 -18 25 -27.5t98 -15.5v-80q-176 4 -209 4q-55 0 -207 -4z" />
<glyph unicode="y" horiz-adv-x="1007" d="M12 748v79q132 -4 209 -4q15 0 213 6v-79q-53 -3 -86 -9q-45 -5 -45 -41q0 -29 35 -118l190 -467l189 460q33 76 33 125q0 28 -27 35q-40 10 -100 13v79q118 -4 200 -4q52 0 170 4v-79q-67 -4 -94 -31q-5 -4 -9.5 -9.5t-9 -13.5t-8 -14.5t-9.5 -19.5t-10 -22.5t-12 -28 t-14 -31.5q-271 -638 -360 -807q-89 -161 -158 -238q-52 -63 -108 -63q-60 0 -103 81q108 68 192 161t187 286h-49l-254 600q-49 111 -72 129q-15 13 -90 21z" />
<glyph unicode="z" horiz-adv-x="890" d="M59 0v59l531 676q-262 -4 -303 -10q-23 -3 -40 -11.5t-27 -16.5t-19.5 -28.5t-13 -31.5t-11.5 -41.5t-12 -42.5l-70 6q5 109 12 195q5 39 22 55t69 16h591v-65l-532 -668q314 0 401 23q39 9 54 53q23 47 47 143l76 -4q-10 -160 -21 -235q-5 -37 -24.5 -54.5t-75.5 -17.5 h-654z" />
<glyph unicode="{" horiz-adv-x="632" d="M37 535v65q51 5 84.5 18t55 33t32 57.5t14.5 80.5t4 112v240q0 86 14.5 144t53.5 107t116.5 73t194.5 24v-74q-73 0 -116 -11t-70.5 -43t-37 -82.5t-9.5 -137.5v-299q0 -138 -38.5 -192.5t-154.5 -80.5q76 -16 116 -42.5t59.5 -80.5t19.5 -149v-311q0 -149 47 -204.5 t184 -55.5v-76q-211 0 -293 73.5t-82 247.5v285q0 139 -40 204t-154 75z" />
<glyph unicode="|" horiz-adv-x="542" d="M205 -354v1841h133v-1841h-133z" />
<glyph unicode="}" horiz-adv-x="632" d="M29 -276q73 0 116 11t70.5 43t37 82.5t9.5 137.5v299q0 138 38.5 192t154.5 80q-77 16 -117 43t-59 80.5t-19 149.5v311q0 149 -47 204.5t-184 55.5v76q210 0 292 -74t82 -248v-284q0 -139 40.5 -204t154.5 -75v-65q-51 -5 -84.5 -18t-55 -33t-32 -57.5t-14.5 -80.5 t-4 -112v-240q0 -86 -14.5 -144t-53.5 -107t-116.5 -73t-194.5 -24v74z" />
<glyph unicode="~" horiz-adv-x="1183" d="M111 528q128 181 282 181q46 0 89 -16.5t145 -74.5q108 -61 164 -61q52 0 97 32.5t101 112.5l84 -88q-127 -178 -280 -178q-88 0 -201 66q-85 49 -123 64.5t-76 15.5q-57 0 -102 -32t-94 -110z" />
<glyph unicode="&#xa1;" horiz-adv-x="573" d="M150 868q0 53 29.5 84t80.5 31q46 0 75.5 -31.5t29.5 -79.5q0 -46 -29.5 -76t-73.5 -30q-50 0 -81 28.5t-31 73.5zM160 -307q0 23 59 862h78q12 -210 26 -423t20.5 -314t6.5 -125q0 -101 -96 -101q-94 0 -94 101z" />
<glyph unicode="&#xa2;" horiz-adv-x="962" d="M141 403q0 171 99.5 295t259.5 160v207h90v-195h20q129 0 203 -36q35 -20 35 -50q0 -44 -57 -116q-75 57 -201 73v-618q112 0 260 72l37 -74q-148 -104 -297 -125v-219h-90v217q-163 7 -261 120.5t-98 288.5zM276 444q0 -123 61 -204.5t163 -106.5v610 q-101 -8 -162.5 -81t-61.5 -218z" />
<glyph unicode="&#xa3;" horiz-adv-x="1136" d="M88 0v119q42 5 100 22q77 25 134 116t57 212q0 9 -4 55h-209v103h199q-2 13 -12.5 67.5t-16.5 87.5t-11.5 76.5t-5.5 67.5q0 116 58 201t154.5 126t218.5 41q175 0 270 -53q35 -22 35 -49q0 -48 -64 -127q-35 43 -113.5 80t-162.5 37q-127 0 -175 -58t-48 -180 q0 -41 36 -317h316v-103h-303v-22q0 -215 -197 -352q126 3 707 6v-156h-963z" />
<glyph unicode="&#xa4;" horiz-adv-x="1114" d="M90 225l129 133q-86 114 -86 263q0 146 84 258l-125 133l88 92l125 -131q110 84 252 84q143 0 250 -82l125 129l90 -92l-125 -133q80 -104 80 -258q0 -152 -80 -261l127 -135l-90 -92l-125 133q-106 -82 -252 -82q-150 0 -250 76l-127 -129zM270 625q0 -138 79.5 -227 t207.5 -89q123 0 205 90t82 222q0 131 -81.5 219t-205.5 88q-125 0 -206 -87t-81 -216z" />
<glyph unicode="&#xa5;" horiz-adv-x="1304" d="M43 1188v82q238 -4 250 -4q44 0 278 4v-82q-78 -3 -116.5 -9t-49 -13.5t-10.5 -22.5q0 -37 97 -197l194 -319l207 344q82 141 82 176q0 24 -34.5 31.5t-129.5 9.5v82q100 -4 248 -4q111 0 205 4v-82q-74 -6 -107 -27q-4 -3 -8.5 -6.5t-10 -10t-10 -12.5t-13 -18 t-14.5 -21t-17.5 -26.5t-20.5 -31t-25 -38t-28 -43.5l-166 -254h266v-86h-324l-57 -88v-59h381v-86h-381v-166q0 -75 8 -94q6 -18 43.5 -26.5t149.5 -14.5v-82q-222 4 -275 4q-60 0 -278 -4v82q104 6 137 14t43 23q12 17 12 98v166h-354v86h354v55l-57 92h-297v86h244 l-203 328q-6 10 -17 28.5t-15.5 26t-12.5 20.5t-12.5 19t-11 14.5t-12 14t-11.5 10.5q-33 24 -121 27z" />
<glyph unicode="&#xa6;" horiz-adv-x="542" d="M205 -231v653h133v-653h-133zM205 711v653h133v-653h-133z" />
<glyph unicode="&#xa7;" horiz-adv-x="991" d="M100 618q0 82 58.5 152.5t165.5 120.5q-59 60 -83 114.5t-24 114.5q0 112 97 191.5t249 79.5q121 0 211 -58q35 -22 35 -55q0 -39 -59 -98q-48 48 -116 79t-130 31q-73 0 -115.5 -37.5t-42.5 -93.5q0 -60 37 -112.5t145 -139.5l148 -119q129 -108 173 -177.5t44 -145.5 q0 -73 -57.5 -148.5t-178.5 -144.5q83 -80 109.5 -136.5t26.5 -121.5q0 -113 -104.5 -203t-264.5 -90q-139 0 -225 53q-45 25 -45 64q0 43 55 98q117 -104 280 -104q77 0 126 36.5t49 96.5q0 52 -43.5 114t-159.5 168l-176 162q-112 100 -148.5 167t-36.5 142zM238 657 q0 -53 29 -101.5t98 -111.5l104 -96q18 -19 64 -60t71 -65q76 46 115 93t39 87q0 50 -31 104.5t-131 143.5l-107 94q-99 82 -114 97q-57 -29 -97 -80.5t-40 -104.5z" />
<glyph unicode="&#xa8;" horiz-adv-x="591" d="M39 1161q0 40 29 69.5t71 29.5q40 0 67 -29t27 -70t-27.5 -69.5t-70.5 -28.5q-39 0 -67.5 28t-28.5 70zM358 1161q0 40 29.5 69.5t73.5 29.5q39 0 65.5 -29.5t26.5 -69.5q0 -41 -27 -69.5t-69 -28.5q-41 0 -70 28t-29 70z" />
<glyph unicode="&#xa9;" horiz-adv-x="1523" d="M80 659q0 188 91 345t249.5 248t347.5 91q187 0 343.5 -90t247.5 -246t91 -341q0 -193 -90 -353.5t-245.5 -252t-342.5 -91.5q-195 0 -354 90.5t-248.5 248.5t-89.5 351zM166 657q0 -126 47 -240t127.5 -196.5t193.5 -131t240 -48.5q123 0 232.5 47.5t187 129t123 194.5 t45.5 239q0 174 -75.5 316.5t-211.5 224.5t-305 82q-127 0 -239.5 -48t-192.5 -130.5t-126 -196.5t-46 -242zM358 647q0 204 124.5 322t334.5 118q130 0 201 -24q31 -11 37 -43q8 -41 8 -182l-59 -4q-12 54 -22.5 82.5t-32 53.5t-57 34.5t-91.5 9.5q-141 0 -225 -90 t-84 -265q0 -164 80.5 -255t215.5 -91q112 0 160 49q28 28 66 115q1 3 3 7l5 12l57 -11q-1 -6 -5.5 -32t-8 -46t-9.5 -47t-12 -45q-9 -34 -47 -49q-73 -30 -217 -30q-187 0 -304.5 108t-117.5 303z" />
<glyph unicode="&#xaa;" horiz-adv-x="737" d="M59 817q0 49 18 83t63.5 61t128.5 40.5t206 14.5q0 125 -20 164q-27 53 -136 53q-48 0 -102 -15.5t-92 -41.5q-16 22 -16 55q0 24 12.5 41t46.5 31q80 36 199 36q59 0 109 -16t75 -43q43 -49 43 -152q0 -15 -1 -143.5t-1 -136.5q0 -63 13.5 -95t53.5 -32q25 0 50 10 l24 -53q-76 -64 -147 -64q-72 0 -97 84q-112 -84 -231 -84q-81 0 -140 58.5t-59 144.5zM186 819q0 -43 31.5 -74.5t85.5 -31.5q80 0 176 51l-4 174q-121 -2 -186.5 -18t-84 -39t-18.5 -62z" />
<glyph unicode="&#xab;" horiz-adv-x="851" d="M82 418q0 29 27 53l325 293l43 -39l-239 -305l239 -318l-45 -39l-328 302q-22 22 -22 53zM406 418q0 28 28 53l324 293l45 -39l-240 -305l240 -318l-45 -39l-328 302q-24 24 -24 53z" />
<glyph unicode="&#xac;" horiz-adv-x="1224" d="M137 477v123h910v-518h-121v395h-789z" />
<glyph unicode="&#xad;" horiz-adv-x="544" d="M63 391v131h420v-131h-420z" />
<glyph unicode="&#xae;" horiz-adv-x="1523" d="M80 659q0 188 91 345t249.5 248t347.5 91q187 0 343.5 -90t247.5 -246t91 -341q0 -193 -90 -353.5t-245.5 -252t-342.5 -91.5q-195 0 -354 90.5t-248.5 248.5t-89.5 351zM166 657q0 -126 47 -240t127.5 -196.5t193.5 -131t240 -48.5q123 0 232.5 47.5t187 129t123 194.5 t45.5 239q0 174 -75.5 316.5t-211.5 224.5t-305 82q-127 0 -239.5 -48t-192.5 -130.5t-126 -196.5t-46 -242zM420 289v57q96 8 108 23q9 9 9 67v492q0 56 -11 67q-13 16 -104 21v57h207q145 0 231 -12q94 -15 145.5 -69t51.5 -140q0 -66 -43.5 -119.5t-120.5 -81.5 q55 -94 88.5 -143.5t71.5 -89.5q4 -4 21.5 -22t23 -23t20 -18t28.5 -23.5t32 -22.5l-35 -51q-92 33 -162 90q-47 37 -95.5 100.5t-119.5 180.5q-18 -2 -57 -2q-40 0 -56 2v-191q0 -58 11 -69q13 -16 114 -23v-57q-74 2 -180 2q-100 0 -178 -2zM653 698q27 -4 68 -4 q102 0 154.5 41t52.5 111q0 57 -20 90t-68 51q-60 21 -187 21v-310z" />
<glyph unicode="&#xaf;" horiz-adv-x="591" d="M43 1038v121h506v-121h-506z" />
<glyph unicode="&#xb0;" horiz-adv-x="675" d="M84 1106q0 116 74 186t182 70t179 -66t71 -188q0 -116 -73 -185t-181 -69t-180 67t-72 185zM180 1108q0 -74 41.5 -122t114.5 -48q76 0 119 47.5t43 120.5q0 78 -43.5 125t-118.5 47q-70 0 -113 -47.5t-43 -122.5z" />
<glyph unicode="&#xb1;" horiz-adv-x="1224" d="M158 92v121h909v-121h-909zM158 745v119h393v389h125v-389h391v-119h-391v-387h-125v387h-393z" />
<glyph unicode="&#xb2;" horiz-adv-x="741" d="M63 819v82q119 82 191 136.5t135.5 115t91 113.5t27.5 108q0 67 -38 110.5t-124 43.5q-43 0 -101 -24t-106 -64l-43 55q142 127 291 127q123 0 186.5 -61.5t63.5 -169.5q0 -52 -17 -98.5t-47 -87t-84.5 -86.5t-114.5 -87.5t-151 -99.5q106 2 428 2v-115h-588z" />
<glyph unicode="&#xb3;" horiz-adv-x="741" d="M98 858q203 0 302.5 44.5t99.5 154.5q0 137 -187 137q-34 0 -100 -8l-8 67q71 14 98 23q80 24 114 63.5t34 96.5q0 39 -28.5 65.5t-82.5 26.5q-39 0 -93.5 -21.5t-99.5 -54.5l-38 64q128 98 266 98q97 0 146.5 -43.5t49.5 -114.5q0 -139 -174 -203q228 -8 228 -184 q0 -74 -52 -136t-127.5 -97.5t-151 -54.5t-132.5 -19q-48 0 -60 39q-4 18 -4 57z" />
<glyph unicode="&#xb4;" horiz-adv-x="598" d="M125 1018l174 262q29 47 48 61.5t44 14.5q31 0 53.5 -20t22.5 -50q0 -44 -53 -92l-232 -217z" />
<glyph unicode="&#xb5;" horiz-adv-x="1130" d="M88 743v74q160 7 283 21l20 -23q-16 -148 -16 -453q0 -136 46.5 -194.5t164.5 -58.5q82 0 211 57v405q0 120 -25 142t-147 28v78q164 4 303 17l18 -25q-10 -152 -10 -532q0 -92 14 -127q14 -29 70 -29q28 0 82 4v-72q-158 -82 -221 -82q-38 0 -54.5 26.5t-25.5 96.5 q-128 -106 -273 -106q-44 0 -91.5 16t-67.5 43q3 -91 13.5 -249t10.5 -177q0 -35 -21.5 -53.5t-58.5 -18.5q-77 0 -77 78v942q0 72 -5 100.5t-18 39.5t-39 17.5t-86 14.5z" />
<glyph unicode="&#xb6;" horiz-adv-x="1124" d="M96 831q0 223 135 351.5t383 128.5h447v-82q-142 -7 -164 -29q-10 -10 -13 -36t-3 -91q0 -31 3 -366.5t3 -407.5q0 -208 -16 -316.5t-64 -213.5q-74 -151 -137 -252l-76 41q129 217 143 499q8 148 8 262v771v18q0 67 -10 84q-14 23 -80 25h-24q-92 0 -115 -23 q-11 -12 -16.5 -36t-10 -104.5t-4.5 -224.5q0 -141 6.5 -216.5t15 -96.5t25.5 -35q19 -14 56 -21.5t114 -13.5v-81q-54 -7 -131 -7q-76 0 -144 15.5t-129.5 51t-105.5 89t-70 135t-26 182.5z" />
<glyph unicode="&#xb7;" horiz-adv-x="407" d="M98 465q0 46 29 77t74 31q50 0 80 -29.5t30 -74.5q0 -53 -28.5 -84t-79.5 -31q-47 0 -76 31.5t-29 79.5z" />
<glyph unicode="&#xb8;" horiz-adv-x="591" d="M129 -436q207 55 207 141q0 30 -20 49.5t-72 46.5q-41 23 -41 58q0 37 51 151h76q-31 -78 -31 -94q0 -28 33 -43q73 -32 102 -66t29 -86q0 -89 -88.5 -146t-227.5 -83z" />
<glyph unicode="&#xb9;" horiz-adv-x="741" d="M178 1520q21 9 72 28.5t98.5 39t85.5 36.5l25 -14q-6 -138 -6 -318v-311q0 -66 8 -74q15 -19 127 -24v-64q-114 4 -189 4q-88 0 -206 -4v64q112 9 124 24q13 16 13 78v303q0 104 -6 150q-3 37 -33 37q-33 0 -96 -13z" />
<glyph unicode="&#xba;" horiz-adv-x="849" d="M72 975q0 159 100.5 261.5t259.5 102.5q165 0 255.5 -95t90.5 -257q0 -119 -50 -205.5t-129.5 -128t-176.5 -41.5q-166 0 -258 99.5t-92 263.5zM209 997q0 -149 58.5 -224t160.5 -75t158.5 68t56.5 195q0 140 -56.5 217t-164.5 77q-94 0 -153.5 -68t-59.5 -190z" />
<glyph unicode="&#xbb;" horiz-adv-x="851" d="M49 100l240 306l-240 319l45 39l326 -303q24 -21 24 -51q0 -34 -28 -56l-324 -291zM375 100l239 306l-239 319l43 39l327 -303q25 -25 25 -51q0 -30 -29 -56l-323 -291z" />
<glyph unicode="&#xbc;" horiz-adv-x="1685" d="M199 1192q21 9 72 28.5t98.5 39t85.5 36.5l24 -14q-6 -138 -6 -317v-312q0 -65 8 -73q16 -20 127 -25v-63q-114 4 -188 4q-89 0 -207 -4v63q112 9 125 25q12 14 12 77v304q0 103 -6 149q-3 37 -33 37q-38 0 -96 -12zM532 0l572 1288h100l-569 -1288h-103zM922 184v68 l413 543h101q-2 -53 -2 -191v-313h131v-107h-129v-227h-117v227h-397zM1042 287h277q0 269 4 375z" />
<glyph unicode="&#xbd;" horiz-adv-x="1685" d="M158 1192q21 9 72 28.5t98.5 39t85.5 36.5l24 -14q-6 -138 -6 -317v-312q0 -65 8 -73q16 -20 127 -25v-63q-114 4 -188 4q-89 0 -207 -4v63q112 9 125 25q12 14 12 77v304q0 103 -6 149q-3 37 -33 37q-38 0 -96 -12zM492 0l571 1288h100l-569 -1288h-102zM946 0v82 q119 82 191 136.5t135.5 115t91 113.5t27.5 108q0 67 -38 110.5t-124 43.5q-43 0 -101 -24t-106 -64l-43 55q142 127 291 127q123 0 186.5 -61.5t63.5 -170.5q0 -52 -17.5 -98.5t-47 -86.5t-84 -86.5t-114 -87.5t-151.5 -99q106 2 428 2v-115h-588z" />
<glyph unicode="&#xbe;" horiz-adv-x="1685" d="M143 530q203 0 302.5 44.5t99.5 154.5q0 137 -187 137q-34 0 -100 -8l-8 68q78 15 98 22q80 24 114 63.5t34 96.5q0 39 -28.5 65.5t-82.5 26.5q-39 0 -93 -21.5t-99 -54.5l-39 64q136 98 266 98q97 0 146.5 -43.5t49.5 -114.5q0 -138 -174 -202q228 -8 228 -185 q0 -74 -52 -136t-127.5 -97.5t-151 -54.5t-132.5 -19q-48 0 -60 39q-4 18 -4 57zM530 0l572 1288h100l-569 -1288h-103zM889 184v68l414 543h100q-2 -53 -2 -191v-313h131v-107h-129v-227h-117v227h-397zM1010 287h276q0 269 4 375z" />
<glyph unicode="&#xbf;" horiz-adv-x="761" d="M68 2q0 107 61.5 183t214.5 143q60 25 70 100q3 19 10 135h78q14 -157 14 -219q0 -61 -26 -91.5t-82 -53.5q-40 -16 -62.5 -26t-48.5 -25t-39.5 -28t-26 -32.5t-17.5 -42.5t-5 -53q0 -47 16.5 -88.5t52.5 -79t104 -60t161 -22.5q67 0 106 8q4 -40 4 -78q-3 -80 -98 -80 q-111 0 -221.5 49.5t-188 146t-77.5 214.5zM350 868q0 52 29.5 83.5t79.5 31.5q47 0 76.5 -31.5t29.5 -79.5q0 -46 -29 -76t-75 -30q-49 0 -80 28.5t-31 73.5z" />
<glyph unicode="&#xc0;" horiz-adv-x="1361" d="M8 -2v80q96 9 131 35q24 20 44.5 59.5t62.5 140.5l401 1000h105l372 -1008q36 -96 56 -138t43 -61q21 -16 131 -28v-80q-204 4 -244 4q-73 0 -307 -4v80q80 6 120.5 14.5t53 19.5t12.5 31q0 46 -47 170l-59 162h-451l-61 -160q-35 -93 -44.5 -123t-9.5 -51 q0 -31 39 -42.5t172 -20.5v-80q-212 4 -274 4q-54 0 -246 -4zM440 1647q0 32 21 52.5t53 20.5q38 0 96 -55l228 -223l-43 -51l-279 165q-76 46 -76 91zM465 571h385q-138 375 -184 519q-57 -158 -201 -519z" />
<glyph unicode="&#xc1;" horiz-adv-x="1361" d="M8 -2v80q96 9 131 35q24 20 44.5 59.5t62.5 140.5l401 1000h105l372 -1008q36 -96 56 -138t43 -61q21 -16 131 -28v-80q-204 4 -244 4q-73 0 -307 -4v80q80 6 120.5 14.5t53 19.5t12.5 31q0 46 -47 170l-59 162h-451l-61 -160q-35 -93 -44.5 -123t-9.5 -51 q0 -31 39 -42.5t172 -20.5v-80q-212 4 -274 4q-54 0 -246 -4zM465 571h385q-138 375 -184 519q-57 -158 -201 -519zM537 1440l229 223q58 55 96 55q32 0 52 -20.5t20 -52.5q0 -46 -74 -91l-278 -165z" />
<glyph unicode="&#xc2;" horiz-adv-x="1361" d="M8 -2v80q96 9 131 35q24 20 44.5 59.5t62.5 140.5l401 1000h105l372 -1008q36 -96 56 -138t43 -61q21 -16 131 -28v-80q-204 4 -244 4q-73 0 -307 -4v80q80 6 120.5 14.5t53 19.5t12.5 31q0 46 -47 170l-59 162h-451l-61 -160q-35 -93 -44.5 -123t-9.5 -51 q0 -31 39 -42.5t172 -20.5v-80q-212 4 -274 4q-54 0 -246 -4zM403 1425l234 252q30 35 61 35q32 0 62 -35l227 -250l-47 -45l-246 168l-241 -168zM465 571h385q-138 375 -184 519q-57 -158 -201 -519z" />
<glyph unicode="&#xc3;" horiz-adv-x="1361" d="M8 -2v80q96 9 131 35q24 20 44.5 59.5t62.5 140.5l401 1000h105l372 -1008q36 -96 56 -138t43 -61q21 -16 131 -28v-80q-204 4 -244 4q-73 0 -307 -4v80q80 6 120.5 14.5t53 19.5t12.5 31q0 46 -47 170l-59 162h-451l-61 -160q-35 -93 -44.5 -123t-9.5 -51 q0 -31 39 -42.5t172 -20.5v-80q-212 4 -274 4q-54 0 -246 -4zM401 1438q25 83 69.5 139.5t104.5 56.5q37 0 111 -24l72 -25q60 -22 90 -22q50 0 92 90l61 -21q-58 -196 -155 -196q-36 0 -133 30l-64 21q-59 18 -86 18q-32 0 -51 -18t-47 -70zM465 571h385q-138 375 -184 519 q-57 -158 -201 -519z" />
<glyph unicode="&#xc4;" horiz-adv-x="1361" d="M8 -2v80q96 9 131 35q24 20 44.5 59.5t62.5 140.5l401 1000h105l372 -1008q36 -96 56 -138t43 -61q21 -16 131 -28v-80q-204 4 -244 4q-73 0 -307 -4v80q80 6 120.5 14.5t53 19.5t12.5 31q0 46 -47 170l-59 162h-451l-61 -160q-35 -93 -44.5 -123t-9.5 -51 q0 -31 39 -42.5t172 -20.5v-80q-212 4 -274 4q-54 0 -246 -4zM426 1532q0 40 29 69t71 29q41 0 68 -29t27 -69q0 -41 -28 -69.5t-71 -28.5q-39 0 -67.5 28t-28.5 70zM465 571h385q-138 375 -184 519q-57 -158 -201 -519zM766 1532q0 40 29 69t73 29q39 0 66 -29t27 -69 q0 -41 -27.5 -69.5t-69.5 -28.5q-40 0 -69 28t-29 70z" />
<glyph unicode="&#xc5;" horiz-adv-x="1361" d="M8 -2v80q96 9 131 35q24 20 44.5 59.5t62.5 140.5l401 1000h105l372 -1008q36 -96 56 -138t43 -61q21 -16 131 -28v-80q-204 4 -244 4q-73 0 -307 -4v80q80 6 120.5 14.5t53 19.5t12.5 31q0 46 -47 170l-59 162h-451l-61 -160q-35 -93 -44.5 -123t-9.5 -51 q0 -31 39 -42.5t172 -20.5v-80q-212 4 -274 4q-54 0 -246 -4zM465 571h385q-138 375 -184 519q-57 -158 -201 -519zM522 1538q0 76 51 126t125 50q75 0 122.5 -48t47.5 -124t-49.5 -126t-122.5 -50q-75 0 -124.5 47.5t-49.5 124.5zM598 1542q0 -47 27 -76.5t71 -29.5 q41 0 69 28.5t28 77.5q0 50 -28 77.5t-69 27.5t-69.5 -28t-28.5 -77z" />
<glyph unicode="&#xc6;" horiz-adv-x="1980" d="M0 -2v80q100 7 135 35q67 55 168 202l526 764q45 66 45 99q0 14 -16 24t-44.5 15t-56 7t-60.5 4h-8t-7.5 0.5t-7.5 0.5v80h997q77 0 98.5 -12.5t24.5 -47.5q10 -123 10 -260l-75 -4q-20 89 -34.5 131t-33.5 58q-28 22 -84.5 28t-200.5 6q-123 0 -174 -4v-485h19 q167 0 229 7t86 30q23 21 45 131h78q-2 -49 -2 -209q0 -141 2 -223h-76q-22 116 -45 137q-22 22 -81.5 26.5t-239.5 4.5h-15v-426q0 -40 13 -58t45 -24q86 -15 163 -15q240 0 297 54q38 40 107 204l74 -14q-26 -209 -54 -291q-12 -33 -41 -43t-98 -10h-854v78q84 6 139 20 q33 9 39 37q6 41 6 119v238h-479l-125 -187q-36 -53 -50 -75t-25 -46.5t-11 -44.5q0 -37 58 -47q80 -10 141 -14v-80q-208 4 -295 4q-52 0 -252 -4zM623 588h415v590q0 18 -10 18t-20 -20q-146 -231 -385 -588z" />
<glyph unicode="&#xc7;" horiz-adv-x="1390" d="M94 631q0 218 92.5 378.5t260 244t391.5 83.5q207 0 344 -43q50 -16 65 -65q15 -54 15 -275l-82 -6q-30 137 -60 191q-6 15 -24 31.5t-39 25.5q-83 39 -238 39q-245 0 -394 -153t-149 -433q0 -267 144 -420t387 -153q135 0 217 30q44 16 80 56q41 50 104 200l80 -14 q-19 -138 -59 -250q-18 -56 -78 -78q-128 -49 -365 -49h-16q-16 -43 -16 -59q0 -30 37 -45q74 -32 103.5 -67.5t29.5 -90.5q0 -63 -46.5 -112t-116.5 -78t-163 -47l-18 73q215 60 215 148q0 32 -21 52t-76 48q-43 24 -43 60q0 30 39 122q-276 25 -438 195t-162 461z" />
<glyph unicode="&#xc8;" horiz-adv-x="1163" d="M51 0v80q149 13 164 26q21 21 21 130v845q0 95 -15 113q-24 27 -170 35v80h817q77 0 98.5 -12.5t24.5 -47.5q10 -92 10 -260l-75 -4q-20 89 -34.5 131t-33.5 58q-28 22 -84.5 28t-200.5 6q-123 0 -172 -4v-481h19q166 0 227.5 7t85.5 30q26 21 45 131h78q-2 -49 -2 -209 q0 -141 2 -223h-76q-22 116 -45 137q-22 22 -81.5 26.5t-237.5 4.5h-15v-430q0 -40 12.5 -58t45.5 -24q82 -15 164 -15q243 0 295 52q34 34 106 206l74 -14q-26 -209 -54 -291q-12 -33 -41 -43t-98 -10h-854zM274 1645q0 32 21 52.5t53 20.5q38 0 96 -55l228 -223l-43 -51 l-279 165q-76 46 -76 91z" />
<glyph unicode="&#xc9;" horiz-adv-x="1163" d="M51 0v80q149 13 164 26q21 21 21 130v845q0 95 -15 113q-24 27 -170 35v80h817q77 0 98.5 -12.5t24.5 -47.5q10 -92 10 -260l-75 -4q-20 89 -34.5 131t-33.5 58q-28 22 -84.5 28t-200.5 6q-123 0 -172 -4v-481h19q166 0 227.5 7t85.5 30q26 21 45 131h78q-2 -49 -2 -209 q0 -141 2 -223h-76q-22 116 -45 137q-22 22 -81.5 26.5t-237.5 4.5h-15v-430q0 -40 12.5 -58t45.5 -24q82 -15 164 -15q243 0 295 52q34 34 106 206l74 -14q-26 -209 -54 -291q-12 -33 -41 -43t-98 -10h-854zM467 1440l229 223q58 55 97 55q32 0 51.5 -20.5t19.5 -52.5 q0 -46 -73 -91l-279 -165z" />
<glyph unicode="&#xca;" horiz-adv-x="1163" d="M51 0v80q149 13 164 26q21 21 21 130v845q0 95 -15 113q-24 27 -170 35v80h817q77 0 98.5 -12.5t24.5 -47.5q10 -92 10 -260l-75 -4q-20 89 -34.5 131t-33.5 58q-28 22 -84.5 28t-200.5 6q-123 0 -172 -4v-481h19q166 0 227.5 7t85.5 30q26 21 45 131h78q-2 -49 -2 -209 q0 -141 2 -223h-76q-22 116 -45 137q-22 22 -81.5 26.5t-237.5 4.5h-15v-430q0 -40 12.5 -58t45.5 -24q82 -15 164 -15q243 0 295 52q34 34 106 206l74 -14q-26 -209 -54 -291q-12 -33 -41 -43t-98 -10h-854zM283 1425l233 252q30 35 62 35q18 0 30.5 -7t30.5 -28l227 -250 l-47 -45l-246 168l-241 -168z" />
<glyph unicode="&#xcb;" horiz-adv-x="1163" d="M51 0v80q149 13 164 26q21 21 21 130v845q0 95 -15 113q-24 27 -170 35v80h817q77 0 98.5 -12.5t24.5 -47.5q10 -92 10 -260l-75 -4q-20 89 -34.5 131t-33.5 58q-28 22 -84.5 28t-200.5 6q-123 0 -172 -4v-481h19q166 0 227.5 7t85.5 30q26 21 45 131h78q-2 -49 -2 -209 q0 -141 2 -223h-76q-22 116 -45 137q-22 22 -81.5 26.5t-237.5 4.5h-15v-430q0 -40 12.5 -58t45.5 -24q82 -15 164 -15q243 0 295 52q34 34 106 206l74 -14q-26 -209 -54 -291q-12 -33 -41 -43t-98 -10h-854zM319 1532q0 40 29.5 69t71.5 29q41 0 67.5 -28.5t26.5 -69.5 t-27.5 -69.5t-70.5 -28.5q-39 0 -68 28t-29 70zM659 1532q0 40 29.5 69t73.5 29q39 0 65.5 -29t26.5 -69q0 -41 -27 -69.5t-69 -28.5q-41 0 -70 28t-29 70z" />
<glyph unicode="&#xcc;" horiz-adv-x="643" d="M37 1645q0 32 21 52.5t53 20.5q38 0 96 -55l227 -223l-43 -51l-278 165q-76 46 -76 91zM47 -2v82q148 9 170 31q19 19 19 122v846q0 103 -19 119q-22 19 -170 31v82q184 -4 272 -4q99 0 279 4v-82q-160 -11 -182 -33q-15 -18 -15 -115v-854q0 -97 15 -114q22 -22 182 -33 v-82q-180 4 -279 4q-88 0 -272 -4z" />
<glyph unicode="&#xcd;" horiz-adv-x="643" d="M47 -2v82q148 9 170 31q19 19 19 122v846q0 103 -19 119q-22 19 -170 31v82q184 -4 272 -4q99 0 279 4v-82q-160 -11 -182 -33q-15 -18 -15 -115v-854q0 -97 15 -114q22 -22 182 -33v-82q-180 4 -279 4q-88 0 -272 -4zM211 1440l229 223q58 55 97 55q32 0 51.5 -20.5 t19.5 -52.5q0 -46 -73 -91l-279 -165z" />
<glyph unicode="&#xce;" horiz-adv-x="643" d="M47 -2v82q148 9 170 31q19 19 19 122v846q0 103 -19 119q-22 19 -170 31v82q184 -4 272 -4q99 0 279 4v-82q-160 -11 -182 -33q-15 -18 -15 -115v-854q0 -97 15 -114q22 -22 182 -33v-82q-180 4 -279 4q-88 0 -272 -4zM55 1425l234 252q30 35 61 35q32 0 62 -35l227 -250 l-47 -45l-246 168l-242 -168z" />
<glyph unicode="&#xcf;" horiz-adv-x="643" d="M47 -2v82q148 9 170 31q19 19 19 122v846q0 103 -19 119q-22 19 -170 31v82q184 -4 272 -4q99 0 279 4v-82q-160 -11 -182 -33q-15 -18 -15 -115v-854q0 -97 15 -114q22 -22 182 -33v-82q-180 4 -279 4q-88 0 -272 -4zM61 1532q0 40 29.5 69t71.5 29q41 0 67.5 -28.5 t26.5 -69.5t-27.5 -69.5t-70.5 -28.5q-39 0 -68 28t-29 70zM401 1532q0 40 29.5 69t73.5 29q39 0 65.5 -29t26.5 -69q0 -41 -27 -69.5t-69 -28.5q-41 0 -70 28t-29 70z" />
<glyph unicode="&#xd0;" horiz-adv-x="1445" d="M45 625v100h191v356q0 92 -13 109q-12 18 -42.5 24.5t-133.5 14.5v82h283q310 0 476.5 -25t270.5 -82q277 -152 277 -524q0 -342 -192.5 -513t-538.5 -171q-23 0 -156 3t-164 3q-64 0 -256 -4v82q149 11 172 31q11 11 14 31.5t3 78.5v404h-191zM401 188q0 -37 14 -51 t52 -20q66 -13 207 -13q238 0 367.5 144t129.5 416q0 175 -72 300.5t-198 178.5q-156 67 -500 67v-485h392v-100h-392v-437z" />
<glyph unicode="&#xd1;" horiz-adv-x="1509" d="M43 1229v82q98 -4 188 -4q86 0 160 4q316 -412 778 -1002q-2 111 -4 280.5t-3 290.5t-3 150q-1 23 -2.5 54t-2.5 43t-2.5 28t-4 24t-6.5 15q-8 13 -43 21t-129 14v82q230 -4 248 -4q34 0 260 4v-82q-99 -8 -133.5 -14t-47.5 -19q-12 -12 -15 -43t-3 -123q0 -98 -1 -334 t-1 -354q0 -268 2 -342h-98q-143 208 -836 1085q1 -111 3 -303.5t3.5 -336t1.5 -166.5q0 -90 3.5 -122t15.5 -44q13 -13 48.5 -19t133.5 -14v-82q-222 4 -258 4q-22 0 -248 -4v82q64 4 102.5 10t52 12t19.5 15q10 14 12.5 46.5t2.5 117.5q0 95 1 278t2 327l1 144 q0 125 -11 144q-27 45 -186 55zM469 1438q25 83 69.5 139.5t104.5 56.5q37 0 111 -24l71 -25q61 -22 90 -22q51 0 93 90l61 -21q-58 -196 -156 -196q-11 0 -23.5 1.5t-22 3.5t-23.5 5.5t-22 6t-22.5 7t-19.5 6.5l-63 21q-59 18 -86 18q-33 0 -52.5 -18t-46.5 -70z" />
<glyph unicode="&#xd2;" horiz-adv-x="1501" d="M94 655q0 147 51 275t139 217t209 139.5t257 50.5q308 0 482.5 -180.5t174.5 -492.5q0 -201 -84.5 -360t-232 -246t-330.5 -87q-206 0 -358 89t-230 243t-78 352zM276 680q0 -288 133.5 -447t356.5 -159q213 0 338 148.5t125 410.5q0 274 -132 439t-352 165 q-211 0 -340 -150.5t-129 -406.5zM473 1645q0 32 21 52.5t53 20.5q38 0 96 -55l227 -223l-43 -51l-278 165q-76 46 -76 91z" />
<glyph unicode="&#xd3;" horiz-adv-x="1501" d="M94 655q0 147 51 275t139 217t209 139.5t257 50.5q308 0 482.5 -180.5t174.5 -492.5q0 -201 -84.5 -360t-232 -246t-330.5 -87q-206 0 -358 89t-230 243t-78 352zM276 680q0 -288 133.5 -447t356.5 -159q213 0 338 148.5t125 410.5q0 274 -132 439t-352 165 q-211 0 -340 -150.5t-129 -406.5zM637 1440l229 223q58 55 97 55q32 0 51.5 -20.5t19.5 -52.5q0 -46 -73 -91l-279 -165z" />
<glyph unicode="&#xd4;" horiz-adv-x="1501" d="M94 655q0 147 51 275t139 217t209 139.5t257 50.5q308 0 482.5 -180.5t174.5 -492.5q0 -201 -84.5 -360t-232 -246t-330.5 -87q-206 0 -358 89t-230 243t-78 352zM276 680q0 -288 133.5 -447t356.5 -159q213 0 338 148.5t125 410.5q0 274 -132 439t-352 165 q-211 0 -340 -150.5t-129 -406.5zM469 1425l233 252q30 35 62 35q18 0 30.5 -7t30.5 -28l228 -250l-47 -45l-246 168l-242 -168z" />
<glyph unicode="&#xd5;" horiz-adv-x="1501" d="M94 655q0 147 51 275t139 217t209 139.5t257 50.5q308 0 482.5 -180.5t174.5 -492.5q0 -201 -84.5 -360t-232 -246t-330.5 -87q-206 0 -358 89t-230 243t-78 352zM276 680q0 -288 133.5 -447t356.5 -159q213 0 338 148.5t125 410.5q0 274 -132 439t-352 165 q-211 0 -340 -150.5t-129 -406.5zM446 1438q24 83 69.5 139.5t105.5 56.5q36 0 110 -24l72 -25q61 -22 90 -22q50 0 92 90l62 -21q-58 -196 -156 -196q-35 0 -133 30l-64 21q-59 18 -86 18q-32 0 -51 -18t-47 -70z" />
<glyph unicode="&#xd6;" horiz-adv-x="1501" d="M94 655q0 147 51 275t139 217t209 139.5t257 50.5q308 0 482.5 -180.5t174.5 -492.5q0 -201 -84.5 -360t-232 -246t-330.5 -87q-206 0 -358 89t-230 243t-78 352zM276 680q0 -288 133.5 -447t356.5 -159q213 0 338 148.5t125 410.5q0 274 -132 439t-352 165 q-211 0 -340 -150.5t-129 -406.5zM477 1532q0 40 29.5 69t71.5 29q41 0 67.5 -28.5t26.5 -69.5t-28 -69.5t-71 -28.5q-39 0 -67.5 28t-28.5 70zM817 1532q0 40 29.5 69t73.5 29q39 0 65.5 -29t26.5 -69q0 -41 -27.5 -69.5t-69.5 -28.5q-40 0 -69 28t-29 70z" />
<glyph unicode="&#xd7;" horiz-adv-x="1224" d="M248 887l82 88l284 -281l283 283l78 -84l-279 -283l283 -284l-82 -86l-285 280l-282 -280l-80 82l278 284z" />
<glyph unicode="&#xd8;" horiz-adv-x="1501" d="M94 655q0 147 51 275t139 217t209 139.5t257 50.5q212 0 368 -92l131 172l80 -59l-129 -172q207 -182 207 -522q0 -201 -84.5 -360t-232 -246t-330.5 -87q-235 0 -400 115l-133 -176l-80 59l138 181q-191 185 -191 505zM276 680q0 -257 103 -408l655 863 q-121 102 -289 102q-211 0 -340 -150.5t-129 -406.5zM444 195q124 -121 322 -121q213 0 338 148.5t125 410.5q0 264 -123 428z" />
<glyph unicode="&#xd9;" horiz-adv-x="1464" d="M29 1229v82q156 -4 288 -4q105 0 269 4v-82q-165 -10 -187 -35q-18 -21 -18 -104q-2 -150 -2 -482q0 -243 35 -332q73 -188 348 -188q112 0 198.5 39t124.5 102q64 115 64 418q0 72 -10 430q-3 109 -27 123q-6 4 -13 7t-13 5t-17 4t-18.5 3t-22.5 2.5t-24.5 2.5 t-30.5 2.5t-33 2.5v82q80 -2 244 -2q21 0 118 1t138 1v-82q-94 -7 -130 -16t-44 -25q-13 -26 -13 -123v-473q0 -189 -24.5 -292.5t-85.5 -170.5q-144 -160 -428 -160q-157 0 -267 51t-163 132q-42 62 -57 154t-15 292q0 91 1 257.5t1 225.5q0 90 -12 109q-10 17 -45.5 25 t-128.5 14zM453 1645q0 32 20.5 52.5t52.5 20.5q39 0 97 -55l227 -223l-43 -51l-279 165q-75 46 -75 91z" />
<glyph unicode="&#xda;" horiz-adv-x="1464" d="M29 1229v82q156 -4 288 -4q105 0 269 4v-82q-165 -10 -187 -35q-18 -21 -18 -104q-2 -150 -2 -482q0 -243 35 -332q73 -188 348 -188q112 0 198.5 39t124.5 102q64 115 64 418q0 72 -10 430q-3 109 -27 123q-6 4 -13 7t-13 5t-17 4t-18.5 3t-22.5 2.5t-24.5 2.5 t-30.5 2.5t-33 2.5v82q80 -2 244 -2q21 0 118 1t138 1v-82q-94 -7 -130 -16t-44 -25q-13 -26 -13 -123v-473q0 -189 -24.5 -292.5t-85.5 -170.5q-144 -160 -428 -160q-157 0 -267 51t-163 132q-42 62 -57 154t-15 292q0 91 1 257.5t1 225.5q0 90 -12 109q-10 17 -45.5 25 t-128.5 14zM635 1440l229 223q58 55 97 55q32 0 51.5 -20.5t19.5 -52.5q0 -46 -74 -91l-278 -165z" />
<glyph unicode="&#xdb;" horiz-adv-x="1464" d="M29 1229v82q156 -4 288 -4q105 0 269 4v-82q-165 -10 -187 -35q-18 -21 -18 -104q-2 -150 -2 -482q0 -243 35 -332q73 -188 348 -188q112 0 198.5 39t124.5 102q64 115 64 418q0 72 -10 430q-3 109 -27 123q-6 4 -13 7t-13 5t-17 4t-18.5 3t-22.5 2.5t-24.5 2.5 t-30.5 2.5t-33 2.5v82q80 -2 244 -2q21 0 118 1t138 1v-82q-94 -7 -130 -16t-44 -25q-13 -26 -13 -123v-473q0 -189 -24.5 -292.5t-85.5 -170.5q-144 -160 -428 -160q-157 0 -267 51t-163 132q-42 62 -57 154t-15 292q0 91 1 257.5t1 225.5q0 90 -12 109q-10 17 -45.5 25 t-128.5 14zM469 1425l233 252q30 35 62 35q18 0 30.5 -7t30.5 -28l228 -250l-47 -45l-246 168l-242 -168z" />
<glyph unicode="&#xdc;" horiz-adv-x="1464" d="M29 1229v82q156 -4 288 -4q105 0 269 4v-82q-165 -10 -187 -35q-18 -21 -18 -104q-2 -150 -2 -482q0 -243 35 -332q73 -188 348 -188q112 0 198.5 39t124.5 102q64 115 64 418q0 72 -10 430q-3 109 -27 123q-6 4 -13 7t-13 5t-17 4t-18.5 3t-22.5 2.5t-24.5 2.5 t-30.5 2.5t-33 2.5v82q80 -2 244 -2q21 0 118 1t138 1v-82q-94 -7 -130 -16t-44 -25q-13 -26 -13 -123v-473q0 -189 -24.5 -292.5t-85.5 -170.5q-144 -160 -428 -160q-157 0 -267 51t-163 132q-42 62 -57 154t-15 292q0 91 1 257.5t1 225.5q0 90 -12 109q-10 17 -45.5 25 t-128.5 14zM479 1532q0 40 29.5 69t71.5 29q41 0 67.5 -28.5t26.5 -69.5t-28 -69.5t-71 -28.5q-39 0 -67.5 28t-28.5 70zM819 1532q0 40 29.5 69t73.5 29q39 0 65.5 -29t26.5 -69q0 -41 -27 -69.5t-69 -28.5q-41 0 -70 28t-29 70z" />
<glyph unicode="&#xdd;" horiz-adv-x="1259" d="M8 1229v82q238 -4 250 -4q47 0 281 4v-82q-78 -3 -117 -9t-49.5 -13.5t-10.5 -22.5q0 -37 97 -197l207 -336l217 361q82 141 82 176q0 24 -34.5 31.5t-129.5 9.5v82q100 -4 248 -4q108 0 202 4v-82q-73 -6 -106 -27q-4 -3 -8.5 -6.5t-10 -10t-10 -12.5t-12.5 -17 t-13.5 -19.5t-16 -24.5t-18 -27t-21 -32.5t-23.5 -36.5l-303 -471v-330q0 -75 8 -94q6 -18 43.5 -26.5t150.5 -14.5v-82q-226 4 -274 4q-63 0 -281 -4v82q104 6 136.5 13.5t42.5 23.5q12 17 12 98v328l-324 526q-8 13 -23.5 38t-21.5 34t-16 23.5t-17.5 22.5t-15.5 15 q-33 24 -121 27zM547 1440l229 223q58 55 96 55q32 0 52 -20.5t20 -52.5q0 -46 -74 -91l-278 -165z" />
<glyph unicode="&#xde;" horiz-adv-x="1173" d="M47 -2v82q126 10 154 22q22 9 28.5 33t6.5 96v848q0 103 -19 119q-22 19 -170 31v82q184 -4 272 -4q99 0 279 4v-82q-163 -8 -182 -33q-15 -18 -15 -111v-36q82 4 127 4q128 0 244 -19q155 -27 239.5 -119t84.5 -241q0 -190 -135.5 -291.5t-387.5 -101.5q-94 0 -172 10 v-64q0 -60 3 -81.5t16 -32.5q25 -22 192 -33v-82q-212 4 -266 4q-69 0 -299 -4zM401 387q47 -6 144 -6q179 0 272.5 65t93.5 213q0 107 -46 173.5t-148 95.5q-95 26 -215 26q-70 0 -101 -2v-565z" />
<glyph unicode="&#xdf;" horiz-adv-x="1093" d="M45 709v65q6 2 82 23q49 11 63 22q15 15 17 90q11 334 149 463q57 53 131 80t142 27q143 0 221 -77.5t78 -189.5q0 -172 -160 -325q-63 -61 -93 -97t-30 -59q0 -26 33 -59q25 -23 174 -140q168 -132 168 -256q0 -137 -100 -219t-240 -82q-36 0 -73.5 5t-77.5 16 t-65.5 33.5t-25.5 54.5q0 17 12.5 36.5t41.5 53.5q35 -45 97.5 -70.5t117.5 -25.5q75 0 124.5 40.5t49.5 110.5q0 46 -36.5 95.5t-127.5 119.5q-119 96 -156 131q-57 51 -57 109q0 41 22 74t88 102q177 188 177 318q0 94 -49.5 144t-147.5 50t-158 -67.5t-69 -188.5 q-10 -128 -12.5 -289t-2.5 -563q0 -159 6 -264q-41 2 -114 2q-69 0 -187 -4v80q75 8 101.5 13t34.5 15q20 22 20 115q-4 422 -4 475q-104 0 -164 13z" />
<glyph unicode="&#xe0;" horiz-adv-x="933" d="M84 221q0 45 12 78.5t45.5 64t89.5 50t147 31t216 12.5q0 98 -6 138t-21 64q-41 68 -168 68q-55 0 -119.5 -17t-113.5 -44q-19 33 -19 59q0 27 16.5 47t63.5 39q97 43 240 43q71 0 128 -19.5t87 -52.5q55 -58 55 -182q0 -16 -1 -176t-1 -170q0 -77 17 -115.5t67 -38.5 q18 0 70 13l24 -60q-92 -76 -176 -76q-49 0 -80.5 29.5t-44.5 79.5q-125 -109 -280 -109q-105 0 -176.5 69.5t-71.5 174.5zM211 1284q0 29 25.5 50.5t54.5 21.5q28 0 44 -13t48 -63l172 -262l-57 -41l-232 217q-55 52 -55 90zM238 225q0 -52 43 -92.5t110 -40.5q41 0 80.5 9 t64.5 19.5t64 29.5l-6 219q-92 -2 -158.5 -10.5t-104 -21t-59 -32t-28 -37.5t-6.5 -43z" />
<glyph unicode="&#xe1;" horiz-adv-x="933" d="M84 221q0 45 12 78.5t45.5 64t89.5 50t147 31t216 12.5q0 98 -6 138t-21 64q-41 68 -168 68q-55 0 -119.5 -17t-113.5 -44q-19 33 -19 59q0 27 16.5 47t63.5 39q97 43 240 43q71 0 128 -19.5t87 -52.5q55 -58 55 -182q0 -16 -1 -176t-1 -170q0 -77 17 -115.5t67 -38.5 q18 0 70 13l24 -60q-92 -76 -176 -76q-49 0 -80.5 29.5t-44.5 79.5q-125 -109 -280 -109q-105 0 -176.5 69.5t-71.5 174.5zM238 225q0 -52 43 -92.5t110 -40.5q41 0 80.5 9t64.5 19.5t64 29.5l-6 219q-92 -2 -158.5 -10.5t-104 -21t-59 -32t-28 -37.5t-6.5 -43zM346 1018 l174 262q29 47 48 61.5t44 14.5q31 0 53.5 -20t22.5 -50q0 -44 -53 -92l-232 -217z" />
<glyph unicode="&#xe2;" horiz-adv-x="933" d="M84 221q0 45 12 78.5t45.5 64t89.5 50t147 31t216 12.5q0 98 -6 138t-21 64q-41 68 -168 68q-55 0 -119.5 -17t-113.5 -44q-19 33 -19 59q0 27 16.5 47t63.5 39q97 43 240 43q71 0 128 -19.5t87 -52.5q55 -58 55 -182q0 -16 -1 -176t-1 -170q0 -77 17 -115.5t67 -38.5 q18 0 70 13l24 -60q-92 -76 -176 -76q-49 0 -80.5 29.5t-44.5 79.5q-125 -109 -280 -109q-105 0 -176.5 69.5t-71.5 174.5zM176 985l211 283q25 37 62 37q33 0 61 -35l205 -283l-49 -41l-222 203l-219 -203zM238 225q0 -52 43 -92.5t110 -40.5q41 0 80.5 9t64.5 19.5 t64 29.5l-6 219q-92 -2 -158.5 -10.5t-104 -21t-59 -32t-28 -37.5t-6.5 -43z" />
<glyph unicode="&#xe3;" horiz-adv-x="933" d="M84 221q0 45 12 78.5t45.5 64t89.5 50t147 31t216 12.5q0 98 -6 138t-21 64q-41 68 -168 68q-55 0 -119.5 -17t-113.5 -44q-19 33 -19 59q0 27 16.5 47t63.5 39q97 43 240 43q71 0 128 -19.5t87 -52.5q55 -58 55 -182q0 -16 -1 -176t-1 -170q0 -77 17 -115.5t67 -38.5 q18 0 70 13l24 -60q-92 -76 -176 -76q-49 0 -80.5 29.5t-44.5 79.5q-125 -109 -280 -109q-105 0 -176.5 69.5t-71.5 174.5zM162 1034q23 82 68.5 139.5t105.5 57.5q44 0 106 -25l52 -22q62 -25 90 -25q27 0 47.5 21t44.5 71l61 -24q-29 -96 -69.5 -146.5t-85.5 -50.5 q-42 0 -125 33l-45 18q-58 21 -90 21q-33 0 -53 -19.5t-46 -70.5zM238 225q0 -52 43 -92.5t110 -40.5q41 0 80.5 9t64.5 19.5t64 29.5l-6 219q-92 -2 -158.5 -10.5t-104 -21t-59 -32t-28 -37.5t-6.5 -43z" />
<glyph unicode="&#xe4;" horiz-adv-x="933" d="M84 221q0 45 12 78.5t45.5 64t89.5 50t147 31t216 12.5q0 98 -6 138t-21 64q-41 68 -168 68q-55 0 -119.5 -17t-113.5 -44q-19 33 -19 59q0 27 16.5 47t63.5 39q97 43 240 43q71 0 128 -19.5t87 -52.5q55 -58 55 -182q0 -16 -1 -176t-1 -170q0 -77 17 -115.5t67 -38.5 q18 0 70 13l24 -60q-92 -76 -176 -76q-49 0 -80.5 29.5t-44.5 79.5q-125 -109 -280 -109q-105 0 -176.5 69.5t-71.5 174.5zM201 1161q0 40 29 69.5t71 29.5q40 0 67 -29t27 -70t-27.5 -69.5t-70.5 -28.5q-39 0 -67.5 28t-28.5 70zM238 225q0 -52 43 -92.5t110 -40.5 q41 0 80.5 9t64.5 19.5t64 29.5l-6 219q-92 -2 -158.5 -10.5t-104 -21t-59 -32t-28 -37.5t-6.5 -43zM520 1161q0 40 29.5 69.5t73.5 29.5q39 0 65.5 -29.5t26.5 -69.5q0 -41 -27.5 -69.5t-69.5 -28.5q-40 0 -69 28t-29 70z" />
<glyph unicode="&#xe5;" horiz-adv-x="933" d="M84 221q0 45 12 78.5t45.5 64t89.5 50t147 31t216 12.5q0 98 -6 138t-21 64q-41 68 -168 68q-55 0 -119.5 -17t-113.5 -44q-19 33 -19 59q0 27 16.5 47t63.5 39q97 43 240 43q71 0 128 -19.5t87 -52.5q55 -58 55 -182q0 -16 -1 -176t-1 -170q0 -77 17 -115.5t67 -38.5 q18 0 70 13l24 -60q-92 -76 -176 -76q-49 0 -80.5 29.5t-44.5 79.5q-125 -109 -280 -109q-105 0 -176.5 69.5t-71.5 174.5zM238 225q0 -52 43 -92.5t110 -40.5q41 0 80.5 9t64.5 19.5t64 29.5l-6 219q-92 -2 -158.5 -10.5t-104 -21t-59 -32t-28 -37.5t-6.5 -43zM276 1141 q0 76 52.5 127t126.5 51q75 0 123.5 -49t48.5 -125t-50.5 -126t-123.5 -50q-75 0 -126 48t-51 124zM352 1145q0 -47 28.5 -77t72.5 -30q41 0 68.5 29t27.5 78q0 50 -27.5 77t-68.5 27t-71 -28t-30 -76z" />
<glyph unicode="&#xe6;" horiz-adv-x="1411" d="M84 219q0 44 12 77.5t45.5 64t89.5 50.5t147.5 31.5t215.5 12.5q0 100 -5.5 142.5t-19.5 66.5q-40 63 -170 63q-56 0 -119.5 -16.5t-109.5 -44.5q-20 28 -20 59q0 27 16.5 47.5t62.5 40.5q108 41 238 41q187 0 235 -139q122 137 314 137q89 0 156.5 -30.5t105 -81.5 t56 -108t18.5 -118q0 -59 -74 -59h-545v-19q0 -152 80.5 -242t220.5 -90q141 0 289 74l37 -72q-185 -135 -369 -135q-195 0 -301 129q-168 -123 -336 -123q-120 0 -195 69t-75 173zM238 223q0 -54 43 -92.5t114 -38.5q73 0 127 19.5t119 62.5q-40 81 -43 191 q-93 -1 -160.5 -9.5t-105.5 -21t-59.5 -32t-28 -37.5t-6.5 -42zM737 535l467 16q-9 99 -68 151t-149 52q-98 0 -166.5 -58t-83.5 -161z" />
<glyph unicode="&#xe7;" horiz-adv-x="860" d="M80 385q0 201 133.5 334t333.5 133q120 0 196 -39q35 -15 35 -49q0 -49 -55 -119q-39 34 -110.5 57t-141.5 23q-112 0 -183 -73.5t-71 -229.5q0 -147 85 -231.5t220 -84.5q116 0 256 74l37 -71q-164 -119 -309 -136q-17 -42 -17 -57q0 -26 33 -43q73 -32 102 -66t29 -86 q0 -89 -88 -146t-227 -83l-19 72q207 55 207 141q0 31 -20 50.5t-72 45.5q-41 23 -41 58q0 37 35 114q-159 12 -253.5 126t-94.5 286z" />
<glyph unicode="&#xe8;" horiz-adv-x="899" d="M80 393q0 108 34 196t93 144.5t135 87.5t162 31q71 0 129 -20.5t96 -54t63.5 -78t36.5 -91t11 -94.5q0 -59 -76 -59h-545v-19q0 -152 80.5 -242t220.5 -90t291 74l37 -72q-188 -135 -369 -135q-185 0 -292 117.5t-107 304.5zM223 535l469 16q-9 99 -68.5 151t-148.5 52 q-99 0 -168 -58t-84 -161zM236 1284q0 30 25 51t54 21q28 0 44.5 -13.5t48.5 -62.5l172 -262l-58 -41l-231 217q-55 52 -55 90z" />
<glyph unicode="&#xe9;" horiz-adv-x="899" d="M80 393q0 108 34 196t93 144.5t135 87.5t162 31q71 0 129 -20.5t96 -54t63.5 -78t36.5 -91t11 -94.5q0 -59 -76 -59h-545v-19q0 -152 80.5 -242t220.5 -90t291 74l37 -72q-188 -135 -369 -135q-185 0 -292 117.5t-107 304.5zM223 535l469 16q-9 99 -68.5 151t-148.5 52 q-99 0 -168 -58t-84 -161zM365 1018l174 262q29 47 48 61.5t44 14.5q31 0 53.5 -20t22.5 -50q0 -43 -54 -92l-231 -217z" />
<glyph unicode="&#xea;" horiz-adv-x="899" d="M80 393q0 108 34 196t93 144.5t135 87.5t162 31q71 0 129 -20.5t96 -54t63.5 -78t36.5 -91t11 -94.5q0 -59 -76 -59h-545v-19q0 -152 80.5 -242t220.5 -90t291 74l37 -72q-188 -135 -369 -135q-185 0 -292 117.5t-107 304.5zM223 535l469 16q-9 99 -68.5 151t-148.5 52 q-99 0 -168 -58t-84 -161zM223 985l211 283q25 37 62 37q33 0 61 -35l205 -283l-49 -41l-221 203l-220 -203z" />
<glyph unicode="&#xeb;" horiz-adv-x="899" d="M80 393q0 108 34 196t93 144.5t135 87.5t162 31q71 0 129 -20.5t96 -54t63.5 -78t36.5 -91t11 -94.5q0 -59 -76 -59h-545v-19q0 -152 80.5 -242t220.5 -90t291 74l37 -72q-188 -135 -369 -135q-185 0 -292 117.5t-107 304.5zM223 535l469 16q-9 99 -68.5 151t-148.5 52 q-99 0 -168 -58t-84 -161zM229 1161q0 40 29.5 69.5t71.5 29.5q40 0 67 -29t27 -70t-27.5 -69.5t-70.5 -28.5q-39 0 -68 28t-29 70zM549 1161q0 41 29.5 70t72.5 29q39 0 65.5 -29.5t26.5 -69.5q0 -41 -27 -69.5t-69 -28.5q-40 0 -69 28t-29 70z" />
<glyph unicode="&#xec;" horiz-adv-x="552" d="M41 1284q0 29 25.5 50.5t54.5 21.5q28 0 44 -13t48 -63l172 -262l-57 -41l-232 217q-55 52 -55 90zM59 -2v80q71 6 96 11.5t38 16.5q16 16 16 97q0 289 -6 360q-3 57 -21 82q-25 28 -116 45v47q151 111 231 111q51 0 51 -72q0 -47 -0.5 -186t-1 -261t-0.5 -126 q0 -74 14 -94q17 -22 146 -31v-80q-164 4 -225 4q-50 0 -222 -4z" />
<glyph unicode="&#xed;" horiz-adv-x="552" d="M59 -2v80q71 6 96 11.5t38 16.5q16 16 16 97q0 289 -6 360q-3 57 -21 82q-25 28 -116 45v47q151 111 231 111q51 0 51 -72q0 -47 -0.5 -186t-1 -261t-0.5 -126q0 -74 14 -94q17 -22 146 -31v-80q-164 4 -225 4q-50 0 -222 -4zM135 1018l174 262q29 47 48 61.5t44 14.5 q31 0 53.5 -20t22.5 -50q0 -44 -53 -92l-231 -217z" />
<glyph unicode="&#xee;" horiz-adv-x="552" d="M-8 985l211 283q25 37 61 37q34 0 62 -35l204 -283l-49 -41l-221 203l-219 -203zM59 -2v80q71 6 96 11.5t38 16.5q16 16 16 97q0 289 -6 360q-3 57 -21 82q-25 28 -116 45v47q151 111 231 111q51 0 51 -72q0 -47 -0.5 -186t-1 -261t-0.5 -126q0 -74 14 -94 q17 -22 146 -31v-80q-164 4 -225 4q-50 0 -222 -4z" />
<glyph unicode="&#xef;" horiz-adv-x="552" d="M10 1161q0 40 29.5 69.5t71.5 29.5q40 0 67 -29t27 -70t-28 -69.5t-71 -28.5q-39 0 -67.5 28t-28.5 70zM59 -2v80q71 6 96 11.5t38 16.5q16 16 16 97q0 289 -6 360q-3 57 -21 82q-25 28 -116 45v47q151 111 231 111q51 0 51 -72q0 -47 -0.5 -186t-1 -261t-0.5 -126 q0 -74 14 -94q17 -22 146 -31v-80q-164 4 -225 4q-50 0 -222 -4zM330 1161q0 41 29 70t73 29q39 0 65.5 -29.5t26.5 -69.5q0 -41 -27 -69.5t-69 -28.5q-40 0 -69 28t-29 70z" />
<glyph unicode="&#xf0;" horiz-adv-x="1013" d="M80 410q0 191 121.5 314.5t310.5 123.5q63 0 122.5 -21.5t94.5 -58.5q-43 166 -178 324l-240 -138l-41 72l224 129q-151 148 -320 209l37 84q232 -66 399 -223l168 96l45 -72l-151 -88q125 -138 193.5 -322.5t68.5 -400.5q0 -110 -35 -199.5t-94.5 -146.5t-136.5 -88 t-164 -31q-201 0 -312.5 120t-111.5 317zM238 438q0 -182 72 -274t200 -92q129 0 198.5 83t69.5 238q0 170 -69.5 265.5t-204.5 95.5q-125 0 -195.5 -83t-70.5 -233z" />
<glyph unicode="&#xf1;" horiz-adv-x="1103" d="M61 -2v80q73 8 97.5 13t34.5 15q16 16 16 97q0 292 -4 360q-1 24 -5 41.5t-12.5 30.5t-17.5 21t-27 14.5t-33.5 10.5t-43.5 9v47q153 111 225 111q24 0 35 -16.5t14 -61.5l6 -41q81 60 166 90.5t156 30.5q107 0 172 -59q38 -34 54.5 -88t16.5 -148q0 -8 -2 -177.5 t-2 -176.5q0 -62 11 -88q9 -12 36.5 -20t106.5 -15v-80q-164 4 -230 4q-45 0 -213 -4v80q112 7 132 31q18 14 18 98q0 141 -4 325q-4 97 -33 132q-41 57 -149 57q-49 0 -116 -14t-118 -43q0 -22 -1 -240.5t-1 -220.5q0 -51 3 -69t13 -28q16 -16 140 -28v-80q-168 4 -240 4 q-33 0 -201 -4zM260 1034q23 82 68.5 139.5t105.5 57.5q45 0 107 -25l51 -22q63 -25 90 -25t47.5 21t44.5 71l62 -24q-29 -96 -70 -146.5t-86 -50.5q-42 0 -125 33l-45 18q-58 21 -90 21q-22 0 -38.5 -9.5t-29 -27.5t-30.5 -53z" />
<glyph unicode="&#xf2;" horiz-adv-x="1013" d="M80 412q0 190 123 315t311 125q200 0 310 -115t110 -311q0 -142 -60.5 -247t-156.5 -155.5t-213 -50.5q-201 0 -312.5 121t-111.5 318zM238 440q0 -182 72 -275t200 -93q129 0 198.5 83t69.5 238q0 171 -69 268t-205 97q-125 0 -195.5 -84t-70.5 -234zM270 1284 q0 29 25.5 50.5t54.5 21.5q28 0 44 -13t48 -63l172 -262l-57 -41l-231 217q-31 30 -43.5 49.5t-12.5 40.5z" />
<glyph unicode="&#xf3;" horiz-adv-x="1013" d="M80 412q0 190 123 315t311 125q200 0 310 -115t110 -311q0 -142 -60.5 -247t-156.5 -155.5t-213 -50.5q-201 0 -312.5 121t-111.5 318zM238 440q0 -182 72 -275t200 -93q129 0 198.5 83t69.5 238q0 171 -69 268t-205 97q-125 0 -195.5 -84t-70.5 -234zM389 1018l174 262 q29 47 48 61.5t44 14.5q31 0 53.5 -20t22.5 -50q0 -44 -53 -92l-232 -217z" />
<glyph unicode="&#xf4;" horiz-adv-x="1013" d="M80 412q0 190 123 315t311 125q200 0 310 -115t110 -311q0 -142 -60.5 -247t-156.5 -155.5t-213 -50.5q-201 0 -312.5 121t-111.5 318zM238 440q0 -182 72 -275t200 -93q129 0 198.5 83t69.5 238q0 171 -69 268t-205 97q-125 0 -195.5 -84t-70.5 -234zM242 985l211 283 q25 37 61 37q33 0 61 -35l205 -283l-49 -41l-221 203l-219 -203z" />
<glyph unicode="&#xf5;" horiz-adv-x="1013" d="M80 412q0 190 123 315t311 125q200 0 310 -115t110 -311q0 -142 -60.5 -247t-156.5 -155.5t-213 -50.5q-201 0 -312.5 121t-111.5 318zM225 1034q23 82 68.5 139.5t105.5 57.5q45 0 107 -25l51 -22q62 -25 90 -25q27 0 47.5 21t44.5 71l62 -24q-29 -96 -70 -146.5 t-86 -50.5q-42 0 -125 33l-45 18q-58 21 -90 21q-33 0 -52.5 -19t-45.5 -71zM238 440q0 -182 72 -275t200 -93q129 0 198.5 83t69.5 238q0 171 -69 268t-205 97q-125 0 -195.5 -84t-70.5 -234z" />
<glyph unicode="&#xf6;" horiz-adv-x="1013" d="M80 412q0 190 123 315t311 125q200 0 310 -115t110 -311q0 -142 -60.5 -247t-156.5 -155.5t-213 -50.5q-201 0 -312.5 121t-111.5 318zM238 440q0 -182 72 -275t200 -93q129 0 198.5 83t69.5 238q0 171 -69 268t-205 97q-125 0 -195.5 -84t-70.5 -234zM254 1161 q0 40 29 69.5t71 29.5q41 0 68 -29t27 -70t-28 -69.5t-71 -28.5q-39 0 -67.5 28t-28.5 70zM573 1161q0 40 29.5 69.5t73.5 29.5q39 0 65.5 -29.5t26.5 -69.5q0 -41 -27 -69.5t-69 -28.5q-41 0 -70 28t-29 70z" />
<glyph unicode="&#xf7;" horiz-adv-x="1224" d="M158 543v121h909v-121h-909zM518 301q0 40 26.5 68t65.5 28q40 0 66 -27.5t26 -70.5q0 -37 -26.5 -64.5t-65.5 -27.5q-40 0 -66 27.5t-26 66.5zM518 905q0 39 26.5 66.5t65.5 27.5q40 0 66 -27.5t26 -68.5q0 -39 -26.5 -66.5t-65.5 -27.5q-41 0 -66.5 27.5t-25.5 68.5z " />
<glyph unicode="&#xf8;" horiz-adv-x="1013" d="M80 412q0 190 123 315t311 125q137 0 229 -53l107 137l70 -55l-105 -136q119 -113 119 -319q0 -142 -60.5 -247t-156.5 -155.5t-213 -50.5q-136 0 -238 60l-98 -127l-68 51l99 129q-119 116 -119 326zM238 440q0 -151 49 -239l385 501q-69 56 -168 56q-126 0 -196 -83.5 t-70 -234.5zM340 131q65 -59 170 -59q131 0 200.5 83t69.5 238q0 148 -53 240z" />
<glyph unicode="&#xf9;" horiz-adv-x="1097" d="M33 729v68q195 39 254 39q51 0 51 -48q0 -8 -7 -173.5t-7 -252.5q0 -136 46 -194.5t162 -58.5q90 0 211 57v393q0 70 -4 96t-16 37q-26 23 -150 37v68q189 39 273 39q53 0 53 -50q0 -6 -7 -184t-7 -323q0 -94 16 -127q12 -29 66 -29q26 0 84 4v-72q-158 -82 -222 -82 q-39 0 -55.5 26.5t-25.5 96.5q-146 -116 -289 -116q-151 0 -215 86t-64 249q0 16 1 110t1 130q0 71 -4 99t-16 38q-26 23 -129 37zM295 1284q0 29 25.5 50.5t54.5 21.5q28 0 44 -13t48 -63l172 -262l-57 -41l-232 217q-55 52 -55 90z" />
<glyph unicode="&#xfa;" horiz-adv-x="1097" d="M33 729v68q195 39 254 39q51 0 51 -48q0 -8 -7 -173.5t-7 -252.5q0 -136 46 -194.5t162 -58.5q90 0 211 57v393q0 70 -4 96t-16 37q-26 23 -150 37v68q189 39 273 39q53 0 53 -50q0 -6 -7 -184t-7 -323q0 -94 16 -127q12 -29 66 -29q26 0 84 4v-72q-158 -82 -222 -82 q-39 0 -55.5 26.5t-25.5 96.5q-146 -116 -289 -116q-151 0 -215 86t-64 249q0 16 1 110t1 130q0 71 -4 99t-16 38q-26 23 -129 37zM430 1018l174 262q29 47 48 61.5t44 14.5q31 0 53.5 -20t22.5 -50q0 -44 -53 -92l-232 -217z" />
<glyph unicode="&#xfb;" horiz-adv-x="1097" d="M33 729v68q195 39 254 39q51 0 51 -48q0 -8 -7 -173.5t-7 -252.5q0 -136 46 -194.5t162 -58.5q90 0 211 57v393q0 70 -4 96t-16 37q-26 23 -150 37v68q189 39 273 39q53 0 53 -50q0 -6 -7 -184t-7 -323q0 -94 16 -127q12 -29 66 -29q26 0 84 4v-72q-158 -82 -222 -82 q-39 0 -55.5 26.5t-25.5 96.5q-146 -116 -289 -116q-151 0 -215 86t-64 249q0 16 1 110t1 130q0 71 -4 99t-16 38q-26 23 -129 37zM276 985l211 283q25 37 62 37q33 0 61 -35l205 -283l-49 -41l-221 203l-219 -203z" />
<glyph unicode="&#xfc;" horiz-adv-x="1097" d="M33 729v68q195 39 254 39q51 0 51 -48q0 -8 -7 -173.5t-7 -252.5q0 -136 46 -194.5t162 -58.5q90 0 211 57v393q0 70 -4 96t-16 37q-26 23 -150 37v68q189 39 273 39q53 0 53 -50q0 -6 -7 -184t-7 -323q0 -94 16 -127q12 -29 66 -29q26 0 84 4v-72q-158 -82 -222 -82 q-39 0 -55.5 26.5t-25.5 96.5q-146 -116 -289 -116q-151 0 -215 86t-64 249q0 16 1 110t1 130q0 71 -4 99t-16 38q-26 23 -129 37zM289 1161q0 40 29 69.5t71 29.5q40 0 67 -29t27 -70t-27.5 -69.5t-70.5 -28.5q-39 0 -67.5 28t-28.5 70zM608 1161q0 40 29.5 69.5t73.5 29.5 q39 0 65.5 -29.5t26.5 -69.5q0 -41 -27 -69.5t-69 -28.5q-41 0 -70 28t-29 70z" />
<glyph unicode="&#xfd;" horiz-adv-x="1007" d="M12 748v79q132 -4 209 -4q15 0 213 6v-79q-53 -3 -86 -9q-45 -5 -45 -41q0 -29 35 -118l190 -467l189 460q33 76 33 125q0 28 -27 35q-40 10 -100 13v79q118 -4 200 -4q52 0 170 4v-79q-67 -4 -94 -31q-5 -4 -9.5 -9.5t-9 -13.5t-8 -14.5t-9.5 -19.5t-10 -22.5t-12 -28 t-14 -31.5q-271 -638 -360 -807q-89 -161 -158 -238q-52 -63 -108 -63q-60 0 -103 81q108 68 192 161t187 286h-49l-254 600q-49 111 -72 129q-15 13 -90 21zM414 1018l174 262q29 47 48 61.5t44 14.5q31 0 53.5 -20t22.5 -50q0 -43 -54 -92l-231 -217z" />
<glyph unicode="&#xfe;" horiz-adv-x="1060" d="M20 -442q71 6 99.5 12t38.5 18q14 16 14 80q0 124 -4 754.5t-4 691.5q0 84 -4.5 117.5t-22.5 54.5q-37 37 -114 45v47q174 109 243 109q43 0 43 -57q0 -101 -2 -305.5t-2 -391.5q75 57 162.5 87t144.5 30q167 0 260 -114t93 -287q0 -208 -127.5 -336.5t-348.5 -128.5 q-83 0 -180 22v-323q0 -77 19 -93q24 -21 161 -32v-80q-152 4 -243 4q-74 0 -226 -4v80zM307 242q0 -78 19 -105q39 -53 186 -53q134 0 219.5 76t85.5 223q0 166 -76 255t-213 89q-40 0 -108.5 -17t-112.5 -40v-428z" />
<glyph unicode="&#xff;" horiz-adv-x="1007" d="M12 748v79q132 -4 209 -4q15 0 213 6v-79q-53 -3 -86 -9q-45 -5 -45 -41q0 -29 35 -118l190 -467l189 460q33 76 33 125q0 28 -27 35q-40 10 -100 13v79q118 -4 200 -4q52 0 170 4v-79q-67 -4 -94 -31q-5 -4 -9.5 -9.5t-9 -13.5t-8 -14.5t-9.5 -19.5t-10 -22.5t-12 -28 t-14 -31.5q-271 -638 -360 -807q-89 -161 -158 -238q-52 -63 -108 -63q-60 0 -103 81q108 68 192 161t187 286h-49l-254 600q-49 111 -72 129q-15 13 -90 21zM252 1161q0 40 29 69.5t71 29.5q40 0 67 -29t27 -70t-27.5 -69.5t-70.5 -28.5q-39 0 -67.5 28t-28.5 70zM571 1161 q0 40 29.5 69.5t73.5 29.5q39 0 65.5 -29.5t26.5 -69.5q0 -41 -27 -69.5t-69 -28.5q-41 0 -70 28t-29 70z" />
<glyph unicode="&#x152;" horiz-adv-x="1953" d="M94 637q0 143 46 267t131 217t215 146.5t288 53.5q52 0 183 -6t173 -6h519q76 0 96.5 -12t23.5 -48q11 -102 11 -260l-74 -4q-22 91 -36.5 132t-33.5 57q-28 22 -84 28t-200 6q-121 0 -172 -4v-481h18q166 0 227.5 7t87.5 30q24 22 43 131h80q-2 -49 -2 -209 q0 -141 2 -223h-77q-22 116 -43 137q-23 22 -83 26.5t-239 4.5h-14v-430q0 -41 12 -58.5t45 -23.5q85 -15 164 -15q241 0 297 52q32 35 104 206l74 -14q-26 -214 -53 -291q-12 -32 -41.5 -42.5t-98.5 -10.5h-548q-43 0 -179 -6t-213 -6q-165 0 -290.5 47t-203 133.5 t-116.5 204t-39 264.5zM276 655q0 -263 119 -415t353 -152q107 0 172.5 20t80.5 54q13 27 13 123v739q0 111 -31 147q-44 54 -223 54q-152 0 -262.5 -74.5t-166 -202.5t-55.5 -293z" />
<glyph unicode="&#x153;" horiz-adv-x="1603" d="M80 412q0 191 121.5 315.5t310.5 124.5q125 0 215.5 -49.5t132.5 -138.5q55 91 146.5 139.5t199.5 48.5q74 0 133 -20.5t96.5 -54t62.5 -78.5t35.5 -90.5t10.5 -94.5q0 -59 -74 -59h-546v-19q0 -157 80.5 -244.5t222.5 -87.5q131 0 295 74l37 -72q-197 -135 -375 -135 q-118 0 -203.5 50t-132.5 141q-53 -92 -145 -140.5t-201 -48.5q-201 0 -311.5 121t-110.5 318zM238 440q0 -182 72 -275t198 -93q129 0 199.5 83t70.5 238q0 171 -68.5 268t-203.5 97q-126 0 -197 -84t-71 -234zM928 535l469 16q-9 99 -68 151t-149 52q-98 0 -167.5 -58 t-84.5 -161z" />
<glyph unicode="&#x178;" horiz-adv-x="1259" d="M8 1229v82q238 -4 250 -4q47 0 281 4v-82q-78 -3 -117 -9t-49.5 -13.5t-10.5 -22.5q0 -37 97 -197l207 -336l217 361q82 141 82 176q0 24 -34.5 31.5t-129.5 9.5v82q100 -4 248 -4q108 0 202 4v-82q-73 -6 -106 -27q-4 -3 -8.5 -6.5t-10 -10t-10 -12.5t-12.5 -17 t-13.5 -19.5t-16 -24.5t-18 -27t-21 -32.5t-23.5 -36.5l-303 -471v-330q0 -75 8 -94q6 -18 43.5 -26.5t150.5 -14.5v-82q-226 4 -274 4q-63 0 -281 -4v82q104 6 136.5 13.5t42.5 23.5q12 17 12 98v328l-324 526q-8 13 -23.5 38t-21.5 34t-16 23.5t-17.5 22.5t-15.5 15 q-33 24 -121 27zM350 1532q0 40 29.5 69t71.5 29q41 0 67.5 -28.5t26.5 -69.5t-28 -69.5t-71 -28.5q-39 0 -67.5 28t-28.5 70zM690 1532q0 40 29.5 69t73.5 29q39 0 65.5 -29t26.5 -69q0 -41 -27.5 -69.5t-69.5 -28.5q-40 0 -69 28t-29 70z" />
<glyph unicode="&#x2c6;" horiz-adv-x="591" d="M27 985l211 283q25 37 61 37q33 0 61 -35l205 -283l-49 -41l-221 203l-219 -203z" />
<glyph unicode="&#x2dc;" horiz-adv-x="591" d="M8 1034q23 82 68.5 139.5t105.5 57.5q44 0 107 -25l51 -22q62 -25 90 -25q27 0 47.5 21t44.5 71l62 -24q-29 -96 -70 -146.5t-86 -50.5q-42 0 -125 33l-45 18q-59 21 -90 21q-33 0 -52.5 -19t-45.5 -71z" />
<glyph unicode="&#x2000;" horiz-adv-x="860" />
<glyph unicode="&#x2001;" horiz-adv-x="1720" />
<glyph unicode="&#x2002;" horiz-adv-x="860" />
<glyph unicode="&#x2003;" horiz-adv-x="1720" />
<glyph unicode="&#x2004;" horiz-adv-x="573" />
<glyph unicode="&#x2005;" horiz-adv-x="430" />
<glyph unicode="&#x2006;" horiz-adv-x="286" />
<glyph unicode="&#x2007;" horiz-adv-x="286" />
<glyph unicode="&#x2008;" horiz-adv-x="215" />
<glyph unicode="&#x2009;" horiz-adv-x="344" />
<glyph unicode="&#x200a;" horiz-adv-x="95" />
<glyph unicode="&#x2010;" horiz-adv-x="544" d="M63 391v131h420v-131h-420z" />
<glyph unicode="&#x2011;" horiz-adv-x="544" d="M63 391v131h420v-131h-420z" />
<glyph unicode="&#x2012;" horiz-adv-x="544" d="M63 391v131h420v-131h-420z" />
<glyph unicode="&#x2013;" horiz-adv-x="1189" d="M102 395v125h985v-125h-985z" />
<glyph unicode="&#x2014;" horiz-adv-x="1667" d="M102 395v125h1461v-125h-1461z" />
<glyph unicode="&#x2018;" horiz-adv-x="323" d="M37 1016q0 95 49.5 184t157.5 189l53 -52q-66 -71 -96.5 -121.5t-30.5 -93.5q0 -47 45 -92q29 -29 29 -67q0 -36 -27.5 -62.5t-66.5 -26.5q-54 0 -83.5 39t-29.5 103z" />
<glyph unicode="&#x2019;" horiz-adv-x="323" d="M14 903q125 131 125 215q0 43 -41 90q-28 32 -28 68q0 37 26.5 62.5t65.5 25.5q55 0 84.5 -38.5t29.5 -102.5q0 -95 -49 -183t-157 -188z" />
<glyph unicode="&#x201a;" horiz-adv-x="323" d="M14 -279q125 134 125 216q0 48 -41 92q-28 28 -28 67q0 36 26.5 62t65.5 26q55 0 84.5 -38.5t29.5 -102.5q0 -95 -49.5 -184t-156.5 -189z" />
<glyph unicode="&#x201c;" horiz-adv-x="600" d="M37 1016q0 95 49.5 184t157.5 189l53 -52q-66 -71 -96.5 -121.5t-30.5 -93.5q0 -47 45 -92q29 -29 29 -67q0 -36 -27.5 -62.5t-66.5 -26.5q-54 0 -83.5 39t-29.5 103zM309 1016q0 95 49.5 184t157.5 189l53 -52q-65 -70 -95 -120.5t-30 -94.5q0 -52 43 -92q29 -25 29 -67 q0 -36 -26.5 -62.5t-65.5 -26.5q-55 0 -85 39t-30 103z" />
<glyph unicode="&#x201d;" horiz-adv-x="600" d="M14 903q125 131 125 215q0 43 -41 90q-28 32 -28 68q0 37 26.5 62.5t65.5 25.5q55 0 84.5 -38.5t29.5 -102.5q0 -95 -49 -183t-157 -188zM289 903q125 131 125 215q0 50 -43 90q-29 29 -29 68q0 37 27 62.5t67 25.5q53 0 83 -39t30 -102q0 -95 -49 -183t-158 -188z" />
<glyph unicode="&#x201e;" horiz-adv-x="600" d="M14 -279q125 134 125 216q0 48 -41 92q-28 28 -28 67q0 36 26.5 62t65.5 26q55 0 84.5 -38.5t29.5 -102.5q0 -95 -49.5 -184t-156.5 -189zM289 -279q125 134 125 216q0 49 -43 92q-29 25 -29 67q0 36 27.5 62t66.5 26q53 0 83 -39t30 -102q0 -95 -49.5 -184.5 t-157.5 -188.5z" />
<glyph unicode="&#x2022;" horiz-adv-x="649" d="M86 588q0 104 63.5 171.5t167.5 67.5q113 0 179.5 -66t66.5 -167q0 -114 -65.5 -182t-173.5 -68q-107 0 -172.5 69.5t-65.5 174.5z" />
<glyph unicode="&#x2026;" horiz-adv-x="1665" d="M170 90q0 46 29.5 77.5t74.5 31.5q49 0 80 -30t31 -75q0 -52 -29.5 -83t-79.5 -31q-47 0 -76.5 31t-29.5 79zM723 90q0 46 30.5 77.5t75.5 31.5q49 0 80 -30t31 -75q0 -52 -29.5 -83t-79.5 -31q-47 0 -77.5 31.5t-30.5 78.5zM1280 90q0 46 28.5 77.5t73.5 31.5 q50 0 81.5 -30t31.5 -75q0 -52 -30 -83t-81 -31q-47 0 -75.5 31t-28.5 79z" />
<glyph unicode="&#x202f;" horiz-adv-x="344" />
<glyph unicode="&#x2039;" horiz-adv-x="524" d="M82 418q0 29 27 53l325 293l43 -39l-239 -305l239 -318l-45 -39l-328 302q-22 22 -22 53z" />
<glyph unicode="&#x203a;" horiz-adv-x="524" d="M49 100l240 306l-240 319l45 39l326 -303q24 -21 24 -51q0 -34 -28 -56l-324 -291z" />
<glyph unicode="&#x205f;" horiz-adv-x="430" />
<glyph unicode="&#x20ac;" horiz-adv-x="1302" d="M162 475v88h149v27q0 60 6 119h-155v88h170q47 228 195 360.5t378 132.5q164 0 256 -47q58 -25 58 -65q0 -55 -52 -121q-119 125 -329 125q-134 0 -225.5 -99.5t-120.5 -285.5h479v-88h-490q-2 -31 -2 -95v-51h492v-88h-484q26 -185 123.5 -282t245.5 -97q170 0 352 119 l52 -72q-129 -91 -227.5 -129.5t-215.5 -38.5q-214 0 -343.5 134.5t-156.5 365.5h-155z" />
<glyph unicode="&#x2122;" horiz-adv-x="1519" d="M55 1135q4 100 8 133q4 41 35 41h475q23 0 33 -10t12 -33q5 -98 5 -131h-43q-17 74 -37 94q-13 11 -41 14.5t-121 3.5v-387q0 -46 8 -57q10 -14 100 -19v-51q-45 2 -157 2q-92 0 -158 -2v51q90 8 98 19q7 10 7 57v387q-108 0 -132 -12q-17 -7 -26 -27.5t-23 -77.5z M659 733v49q73 6 82 15q13 13 15 57q18 354 18 356q0 27 -8 33q-6 7 -20.5 9.5t-55.5 4.5v52q43 -2 119 -2q72 0 86 2q7 -18 170 -426q102 242 174 426q25 -2 102 -2q76 0 111 2v-52q-81 -5 -88 -14q-8 -11 -8 -45q0 -17 6 -332q0 -55 6 -61q13 -17 92 -23v-49q-27 0 -78 1 t-63 1q-9 0 -64 -1t-88 -1v49q81 8 88 17q7 11 7 43q0 90 -2 350q-30 -85 -191 -459h-51q-133 332 -182 457q-3 -74 -5.5 -139.5t-3.5 -99t-2 -59.5t-1.5 -37.5t-0.5 -18.5q0 -34 11 -39q11 -8 88 -15v-49q-24 0 -68 1t-51 1q-6 0 -61 -1t-83 -1z" />
</font>
</defs>
</svg>
